<svg width="20" height="20" viewBox="0 0 20 20" fill="none" xmlns="http://www.w3.org/2000/svg">
<g id="event_note">
<path id="Vector" d="M15.8333 3.33332H15V1.66666H13.3333V3.33332H6.66667V1.66666H5V3.33332H4.16667C3.25 3.33332 2.5 4.08332 2.5 4.99999V16.6667C2.5 17.5833 3.25 18.3333 4.16667 18.3333H15.8333C16.75 18.3333 17.5 17.5833 17.5 16.6667V4.99999C17.5 4.08332 16.75 3.33332 15.8333 3.33332ZM15.8333 16.6667H4.16667V8.33332H15.8333V16.6667ZM4.16667 6.66666V4.99999H15.8333V6.66666H4.16667ZM5.83333 9.99999H14.1667V11.6667H5.83333V9.99999ZM5.83333 13.3333H11.6667V15H5.83333V13.3333Z" fill="#474747" fill-opacity="0.63"/>
</g>
</svg>
