<svg width="18" height="18" viewBox="0 0 18 18" fill="none" xmlns="http://www.w3.org/2000/svg">
<g id="favorite_border">
<path id="Vector" d="M12.375 2.11877C11.07 2.11877 9.8175 2.72627 9 3.68627C8.1825 2.72627 6.93 2.11877 5.625 2.11877C3.315 2.11877 1.5 3.93377 1.5 6.24377C1.5 9.07877 4.05 11.3888 7.9125 14.8988L9 15.8813L10.0875 14.8913C13.95 11.3888 16.5 9.07877 16.5 6.24377C16.5 3.93377 14.685 2.11877 12.375 2.11877ZM9.075 13.7813L9 13.8563L8.925 13.7813C5.355 10.5488 3 8.41127 3 6.24377C3 4.74377 4.125 3.61877 5.625 3.61877C6.78 3.61877 7.905 4.36127 8.3025 5.38877H9.705C10.095 4.36127 11.22 3.61877 12.375 3.61877C13.875 3.61877 15 4.74377 15 6.24377C15 8.41127 12.645 10.5488 9.075 13.7813Z" fill="#474747" fill-opacity="0.63"/>
</g>
</svg>
