<svg width="18" height="18" viewBox="0 0 18 18" fill="none" xmlns="http://www.w3.org/2000/svg">
<g id="grass">
<path id="Vector" d="M9 15H1.5V13.5H5.8125C5.265 11.3925 3.6075 9.7425 1.5 9.195C1.98 9.075 2.4825 9 3 9C6.315 9 9 11.685 9 15ZM16.5 9.195C16.02 9.075 15.5175 9 15 9C12.8025 9 10.89 10.185 9.84 11.9475C10.0575 12.4425 10.2375 12.96 10.3425 13.5C10.44 13.9875 10.4925 14.49 10.4925 15H16.4925V13.5H12.18C12.735 11.3925 14.3925 9.7425 16.5 9.195ZM11.73 8.265C12.315 6.6975 13.4025 5.385 14.7975 4.515C11.58 4.62 9 7.2525 9 10.5C9 10.5075 9 10.515 9 10.515C9.7125 9.5625 10.65 8.79 11.73 8.265ZM8.565 6.6375C7.935 4.995 6.66 3.6675 5.025 3C6.105 4.395 6.75 6.135 6.75 8.0325C6.75 8.19 6.7275 8.34 6.72 8.49C7.0425 8.67 7.3425 8.88 7.635 9.105C7.7925 8.22 8.1225 7.3875 8.565 6.6375Z" fill="#3B3B3B"/>
</g>
</svg>
