<svg width="18" height="18" viewBox="0 0 18 18" fill="none" xmlns="http://www.w3.org/2000/svg">
<g id="history">
<path id="Vector" d="M10.125 2.25C6.3975 2.25 3.375 5.2725 3.375 9H1.125L4.0425 11.9175L4.095 12.0225L7.125 9H4.875C4.875 6.0975 7.2225 3.75 10.125 3.75C13.0275 3.75 15.375 6.0975 15.375 9C15.375 11.9025 13.0275 14.25 10.125 14.25C8.6775 14.25 7.365 13.6575 6.42 12.705L5.355 13.77C6.5775 14.9925 8.2575 15.75 10.125 15.75C13.8525 15.75 16.875 12.7275 16.875 9C16.875 5.2725 13.8525 2.25 10.125 2.25ZM9.375 6V9.75L12.5625 11.64L13.14 10.68L10.5 9.1125V6H9.375Z" fill="#3B3B3B"/>
</g>
</svg>
