<svg width="16" height="16" viewBox="0 0 16 16" fill="none" xmlns="http://www.w3.org/2000/svg">
<g id="lock">
<path id="Vector" d="M12.0001 5.66667H11.3334V4.33333C11.3334 2.49333 9.84008 1 8.00008 1C6.16008 1 4.66675 2.49333 4.66675 4.33333V5.66667H4.00008C3.26675 5.66667 2.66675 6.26667 2.66675 7V13.6667C2.66675 14.4 3.26675 15 4.00008 15H12.0001C12.7334 15 13.3334 14.4 13.3334 13.6667V7C13.3334 6.26667 12.7334 5.66667 12.0001 5.66667ZM8.00008 11.6667C7.26675 11.6667 6.66675 11.0667 6.66675 10.3333C6.66675 9.6 7.26675 9 8.00008 9C8.73341 9 9.33341 9.6 9.33341 10.3333C9.33341 11.0667 8.73341 11.6667 8.00008 11.6667ZM10.0667 5.66667H5.93341V4.33333C5.93341 3.19333 6.86008 2.26667 8.00008 2.26667C9.14008 2.26667 10.0667 3.19333 10.0667 4.33333V5.66667Z" fill="#474747" fill-opacity="0.63"/>
</g>
</svg>
