<svg width="72" height="18" viewBox="0 0 72 18" fill="none" xmlns="http://www.w3.org/2000/svg">
<g id="logo">
<path id="Vector" d="M71.6259 0V17.9605H69.0798V0H71.6259ZM66.2377 1.875C66.2377 7.32237 64.3233 11.8421 57.9088 14.8816L56.5864 12.8684C61.2246 10.6776 63.2673 7.83553 63.672 3.84868H57.5535V1.875H66.2377Z" fill="#3B3B3B"/>
<path id="Vector_2" d="M44.3741 0.532895C47.0978 0.532895 49.1702 2.23026 49.1702 4.63816C49.1702 7.00658 47.0978 8.72368 44.3741 8.72368C41.5912 8.72368 39.5386 7.00658 39.5386 4.63816C39.5386 2.23026 41.5912 0.532895 44.3741 0.532895ZM44.3741 2.58553C42.9925 2.58553 41.9662 3.33553 41.9859 4.63816C41.9662 5.92105 42.9925 6.69079 44.3741 6.69079C45.7359 6.69079 46.7425 5.92105 46.7425 4.63816C46.7425 3.33553 45.7359 2.58553 44.3741 2.58553ZM54.3017 0V9H51.7754V0H54.3017ZM54.3017 9.75V14.625H44.7491V15.7895H54.7952V17.7632H42.282V12.7895H51.7952V11.6842H42.2425V9.75H54.3017Z" fill="#3B3B3B"/>
<path id="Vector_3" d="M32.5809 0V18H30.0348V0H32.5809ZM27.3704 1.57895V3.63158H21.1533V11.5855C24.3704 11.5757 26.3441 11.5066 28.6138 11.0921L28.8506 13.1645C26.3638 13.6382 24.0743 13.7171 20.1862 13.7171H18.627V1.57895H27.3704Z" fill="#3B3B3B"/>
<path id="Vector_4" d="M6.90789 3.41447C6.90789 5.58553 8.19079 7.75658 11.1118 8.68421L9.73026 10.5789C7.80592 9.94737 6.45395 8.68421 5.68421 7.08553C4.875 8.89145 3.43421 10.3322 1.32237 11.0526L0 9.03947C3 8.07237 4.3421 5.72368 4.36184 3.41447V3.33553H0.75V1.34211H10.4803V3.33553H6.90789V3.41447ZM14.5263 0V5.23026H16.9539V7.30263H14.5263V13.1645H12V0H14.5263ZM15.1776 15.6316V17.6447H2.88158V11.8618H5.38816V15.6316H15.1776Z" fill="#3B3B3B"/>
</g>
</svg>
