<svg width="28" height="28" viewBox="0 0 28 28" fill="none" xmlns="http://www.w3.org/2000/svg">
<g id="more_horiz">
<path id="Vector" d="M7.00008 11.6667C5.71675 11.6667 4.66675 12.7167 4.66675 14C4.66675 15.2833 5.71675 16.3333 7.00008 16.3333C8.28342 16.3333 9.33342 15.2833 9.33342 14C9.33342 12.7167 8.28342 11.6667 7.00008 11.6667ZM21.0001 11.6667C19.7167 11.6667 18.6667 12.7167 18.6667 14C18.6667 15.2833 19.7167 16.3333 21.0001 16.3333C22.2834 16.3333 23.3334 15.2833 23.3334 14C23.3334 12.7167 22.2834 11.6667 21.0001 11.6667ZM14.0001 11.6667C12.7167 11.6667 11.6667 12.7167 11.6667 14C11.6667 15.2833 12.7167 16.3333 14.0001 16.3333C15.2834 16.3333 16.3334 15.2833 16.3334 14C16.3334 12.7167 15.2834 11.6667 14.0001 11.6667Z" fill="#474747" fill-opacity="0.63"/>
</g>
</svg>
