<svg width="18" height="18" viewBox="0 0 18 18" fill="none" xmlns="http://www.w3.org/2000/svg">
<g id="settings">
<path id="Vector" d="M14.5741 9.735C14.6041 9.495 14.6266 9.255 14.6266 9C14.6266 8.745 14.6041 8.505 14.5741 8.265L16.1566 7.0275C16.2991 6.915 16.3366 6.7125 16.2466 6.5475L14.7466 3.9525C14.6791 3.8325 14.5516 3.765 14.4166 3.765C14.3716 3.765 14.3266 3.7725 14.2891 3.7875L12.4216 4.5375C12.0316 4.2375 11.6116 3.99 11.1541 3.8025L10.8691 1.815C10.8466 1.635 10.6891 1.5 10.5016 1.5H7.50159C7.31409 1.5 7.15659 1.635 7.13409 1.815L6.84909 3.8025C6.39159 3.99 5.97159 4.245 5.58159 4.5375L3.71409 3.7875C3.66909 3.7725 3.62409 3.765 3.57909 3.765C3.45159 3.765 3.32409 3.8325 3.25659 3.9525L1.75659 6.5475C1.65909 6.7125 1.70409 6.915 1.84659 7.0275L3.42909 8.265C3.39909 8.505 3.37659 8.7525 3.37659 9C3.37659 9.2475 3.39909 9.495 3.42909 9.735L1.84659 10.9725C1.70409 11.085 1.66659 11.2875 1.75659 11.4525L3.25659 14.0475C3.32409 14.1675 3.45159 14.235 3.58659 14.235C3.63159 14.235 3.67659 14.2275 3.71409 14.2125L5.58159 13.4625C5.97159 13.7625 6.39159 14.01 6.84909 14.1975L7.13409 16.185C7.15659 16.365 7.31409 16.5 7.50159 16.5H10.5016C10.6891 16.5 10.8466 16.365 10.8691 16.185L11.1541 14.1975C11.6116 14.01 12.0316 13.755 12.4216 13.4625L14.2891 14.2125C14.3341 14.2275 14.3791 14.235 14.4241 14.235C14.5516 14.235 14.6791 14.1675 14.7466 14.0475L16.2466 11.4525C16.3366 11.2875 16.2991 11.085 16.1566 10.9725L14.5741 9.735ZM13.0891 8.4525C13.1191 8.685 13.1266 8.8425 13.1266 9C13.1266 9.1575 13.1116 9.3225 13.0891 9.5475L12.9841 10.395L13.6516 10.92L14.4616 11.55L13.9366 12.4575L12.9841 12.075L12.2041 11.76L11.5291 12.27C11.2066 12.51 10.8991 12.69 10.5916 12.8175L9.79659 13.14L9.67659 13.9875L9.52659 15H8.47659L8.21409 13.14L7.41909 12.8175C7.09659 12.6825 6.79659 12.51 6.49659 12.285L5.81409 11.76L5.01909 12.0825L4.06659 12.465L3.54159 11.5575L4.35159 10.9275L5.01909 10.4025L4.91409 9.555C4.89159 9.3225 4.87659 9.15 4.87659 9C4.87659 8.85 4.89159 8.6775 4.91409 8.4525L5.01909 7.605L4.35159 7.08L3.54159 6.45L4.06659 5.5425L5.01909 5.925L5.79909 6.24L6.47409 5.73C6.79659 5.49 7.10409 5.31 7.41159 5.1825L8.20659 4.86L8.32659 4.0125L8.47659 3H9.51909L9.78159 4.86L10.5766 5.1825C10.8991 5.3175 11.1991 5.49 11.4991 5.715L12.1816 6.24L12.9766 5.9175L13.9291 5.535L14.4541 6.4425L13.6516 7.08L12.9841 7.605L13.0891 8.4525ZM9.00159 6C7.34409 6 6.00159 7.3425 6.00159 9C6.00159 10.6575 7.34409 12 9.00159 12C10.6591 12 12.0016 10.6575 12.0016 9C12.0016 7.3425 10.6591 6 9.00159 6ZM9.00159 10.5C8.17659 10.5 7.50159 9.825 7.50159 9C7.50159 8.175 8.17659 7.5 9.00159 7.5C9.82659 7.5 10.5016 8.175 10.5016 9C10.5016 9.825 9.82659 10.5 9.00159 10.5Z" fill="#3B3B3B"/>
</g>
</svg>
