<svg width="500" height="544" viewBox="0 0 500 544" fill="none" xmlns="http://www.w3.org/2000/svg">
<mask id="path-1-inside-1_3048_12895" fill="white">
<path d="M180 44C180 37.3726 185.373 32 192 32H308C314.627 32 320 37.3726 320 44V58C320 64.6274 314.627 70 308 70H192C185.373 70 180 64.6274 180 58V44Z"/>
</mask>
<path d="M180 44C180 37.3726 185.373 32 192 32H308C314.627 32 320 37.3726 320 44V58C320 64.6274 314.627 70 308 70H192C185.373 70 180 64.6274 180 58V44Z" fill="#9E9E9E" fill-opacity="0.15"/>
<path d="M192 33H308V31H192V33ZM319 44V58H321V44H319ZM308 69H192V71H308V69ZM181 58V44H179V58H181ZM192 69C185.925 69 181 64.0751 181 58H179C179 65.1797 184.82 71 192 71V69ZM319 58C319 64.0751 314.075 69 308 69V71C315.18 71 321 65.1797 321 58H319ZM308 33C314.075 33 319 37.9249 319 44H321C321 36.8203 315.18 31 308 31V33ZM192 31C184.82 31 179 36.8203 179 44H181C181 37.9249 185.925 33 192 33V31Z" fill="#919191" fill-opacity="0.36" mask="url(#path-1-inside-1_3048_12895)"/>
<path d="M208.284 44.3281V58.3594H206.799V44.3281H208.284ZM200.799 45.375C202.877 45.375 204.409 47.2812 204.409 50.2812C204.409 53.2969 202.877 55.2031 200.799 55.2031C198.69 55.2031 197.174 53.2969 197.174 50.2812C197.174 47.2812 198.69 45.375 200.799 45.375ZM200.799 46.7031C199.502 46.7031 198.612 48.0781 198.612 50.2812C198.612 52.5 199.502 53.875 200.799 53.875C202.08 53.875 202.971 52.5 202.971 50.2812C202.971 48.0781 202.08 46.7031 200.799 46.7031ZM222.094 44.3438V54.6875H220.609V49.4062H217.547V52.3594H211.094V45.2656H212.578V47.6406H216.078V45.2656H217.547V48.2031H220.609V44.3438H222.094ZM222.406 56.8281V58.0312H212.953V53.6719H214.453V56.8281H222.406ZM212.578 51.1562H216.078V48.7812H212.578V51.1562ZM234.808 45.1094V46.2969H230.027V49.7031C232.667 49.7109 234.261 49.5938 236.074 49.2344L236.246 50.4062C234.308 50.8281 232.605 50.8906 229.667 50.8906H228.558V45.1094H234.808ZM238.964 44.3281V47.1875H240.996V48.4062H238.964V51.3594H237.48V44.3281H238.964ZM238.964 52.0156V55.5938H231.402V56.9531H239.449V58.1562H229.949V54.4531H237.496V53.2031H229.917V52.0156H238.964ZM250.397 47.1562C250.397 48.9844 251.647 50.6875 253.804 51.4219L252.975 52.5312C251.429 52 250.28 50.9062 249.679 49.5312C249.061 51.0703 247.843 52.2969 246.194 52.8906L245.413 51.7031C247.585 50.9531 248.897 49.0938 248.913 47.1562V46.6875H245.866V45.5H253.413V46.6875H250.397V47.1562ZM256.507 44.3125V48.5469H258.538V49.7812H256.507V54.5625H255.022V44.3125H256.507ZM257.1 56.8281V58.0312H247.632V53.625H249.116V56.8281H257.1ZM270.833 44.3281V58.3594H269.348V44.3281H270.833ZM266.833 45.625V46.8594H261.629V53.6562C264.286 53.6484 265.981 53.5781 267.958 53.2188L268.114 54.4531C266.02 54.8281 264.192 54.9219 261.286 54.9219H260.129V45.625H266.833ZM288.453 44.3438V55.0156H286.969V52.125H284.719V50.9375H286.969V49.2031H284.719V47.9844H286.969V44.3438H288.453ZM284.672 45.9688V47.1719H276.797V45.9688H280.078V44.3281H281.547V45.9688H284.672ZM280.797 47.8438C282.687 47.8438 284.016 48.9375 284.031 50.5312C284.016 52.1406 282.687 53.2344 280.797 53.2344C278.906 53.2344 277.578 52.1406 277.578 50.5312C277.578 48.9375 278.906 47.8438 280.797 47.8438ZM280.797 49C279.703 49.0156 278.969 49.6094 278.969 50.5312C278.969 51.4844 279.703 52.0781 280.797 52.0781C281.875 52.0781 282.625 51.4844 282.641 50.5312C282.625 49.6094 281.875 49.0156 280.797 49ZM288.766 56.8281V58.0312H279.312V54.0781H280.812V56.8281H288.766ZM301.529 44.3438V48.4688H303.529V49.7031H301.529V53.8125H300.045V44.3438H301.529ZM296.951 53.9688C299.904 53.9531 301.607 54.7344 301.623 56.1562C301.607 57.5625 299.904 58.3125 296.951 58.3281C293.982 58.3125 292.279 57.5625 292.279 56.1562C292.279 54.7344 293.982 53.9531 296.951 53.9688ZM296.951 55.0625C294.857 55.0625 293.763 55.4531 293.779 56.1562C293.763 56.8281 294.857 57.2188 296.951 57.2188C299.013 57.2188 300.107 56.8281 300.107 56.1562C300.107 55.4531 299.013 55.0625 296.951 55.0625ZM290.42 52.0938C291.506 52.1016 292.763 52.1016 294.076 52.0625V51.0312C292.466 50.875 291.466 50.1562 291.482 49.0781C291.466 47.8281 292.779 47.0938 294.81 47.0938C296.826 47.0938 298.138 47.8281 298.138 49.0781C298.138 50.1484 297.146 50.8672 295.56 51.0312V52C296.81 51.9375 298.076 51.8359 299.248 51.6719L299.373 52.7031C296.373 53.2188 293.06 53.2656 290.576 53.2656L290.42 52.0938ZM298.857 45.4688V46.5781H290.779V45.4688H294.076V44.2188H295.56V45.4688H298.857ZM294.81 48.0938C293.607 48.0938 292.888 48.4688 292.888 49.0781C292.888 49.7031 293.607 50.0781 294.81 50.0781C295.998 50.0781 296.716 49.7031 296.716 49.0781C296.716 48.4688 295.998 48.0938 294.81 48.0938Z" fill="#474747" fill-opacity="0.63"/>
<path d="M118.101 123L124.234 111.086V110.988H117.124V108.859H126.87V111.027L120.737 123H118.101ZM142.828 107.102V117.395H140.64V116.672H137.34V115.344H140.64V107.102H142.828ZM128.004 113.469C131.422 113.469 135.679 113.43 139.468 113.059L139.586 114.426C137.974 114.65 136.314 114.787 134.683 114.855V117.414H132.535V114.953C131.021 114.992 129.566 115.002 128.238 114.992L128.004 113.469ZM142.828 117.941V121.906H132.789V123.039H143.297V124.582H130.66V120.48H140.679V119.426H130.582V117.941H142.828ZM133.707 107.375C136.324 107.375 138.121 108.43 138.121 110.031C138.121 111.672 136.324 112.668 133.707 112.668C131.031 112.668 129.254 111.672 129.254 110.031C129.254 108.43 131.031 107.375 133.707 107.375ZM133.707 108.82C132.222 108.82 131.304 109.289 131.324 110.031C131.304 110.773 132.222 111.223 133.707 111.223C135.152 111.223 136.09 110.773 136.09 110.031C136.09 109.289 135.152 108.82 133.707 108.82ZM160.231 107.082V124.738H158.141V107.082H160.231ZM156.598 107.395V123.879H154.528V115.48H152.848C152.643 118.918 151.168 121.047 148.981 121.027C146.676 121.047 145.172 118.605 145.172 114.719C145.172 110.832 146.676 108.43 148.981 108.43C151.119 108.43 152.574 110.422 152.828 113.723H154.528V107.395H156.598ZM148.981 110.48C147.867 110.461 147.164 111.965 147.184 114.719C147.164 117.473 147.867 118.977 148.981 118.957C150.153 118.977 150.856 117.473 150.856 114.719C150.856 111.965 150.153 110.461 148.981 110.48ZM176.266 112.082V113.801H164.04V107.727H166.188V112.082H176.266ZM178.083 115.852V117.57H161.95V115.852H178.083ZM176.383 122.57V124.328H163.883V119.133H166.051V122.57H176.383ZM199.47 116.027V117.785H183.377V116.027H190.33V114.152H192.478V116.027H199.47ZM192.478 107.121V108.723H197.888V110.441H192.654C192.918 111.887 194.998 113.098 198.67 113.352L198.006 115.012C194.842 114.768 192.508 113.781 191.404 112.258C190.3 113.781 187.947 114.768 184.802 115.012L184.138 113.352C187.791 113.098 189.871 111.887 190.154 110.441H184.959V108.723H190.33V107.121H192.478ZM191.404 118.762C195.252 118.762 197.498 119.816 197.517 121.75C197.498 123.664 195.252 124.719 191.404 124.719C187.537 124.719 185.252 123.664 185.252 121.75C185.252 119.816 187.537 118.762 191.404 118.762ZM191.404 120.383C188.806 120.383 187.439 120.832 187.459 121.75C187.439 122.648 188.806 123.098 191.404 123.098C193.943 123.098 195.33 122.648 195.349 121.75C195.33 120.832 193.943 120.383 191.404 120.383ZM239.804 108.312C242.597 108.293 244.648 110.07 244.668 112.57C244.648 115.09 242.597 116.848 239.804 116.848C237.031 116.848 234.961 115.09 234.961 112.57C234.961 110.07 237.031 108.293 239.804 108.312ZM239.804 110.188C238.261 110.188 237.109 111.105 237.109 112.57C237.109 114.055 238.261 114.953 239.804 114.953C241.367 114.953 242.539 114.055 242.539 112.57C242.539 111.105 241.367 110.188 239.804 110.188ZM248.789 107.082V124.758H246.621V107.082H248.789ZM234.16 119.289C237.344 119.289 241.758 119.25 245.566 118.703L245.742 120.285C241.777 121.047 237.539 121.066 234.433 121.066L234.16 119.289ZM261.817 110.559C261.817 112.766 263.243 114.895 266.036 115.812L264.844 117.453C262.921 116.809 261.534 115.5 260.762 113.84C259.981 115.705 258.507 117.18 256.427 117.902L255.294 116.184C258.145 115.227 259.63 112.902 259.63 110.559V110.227H255.958V108.488H265.489V110.227H261.817V110.559ZM269.415 107.082V112.316H271.876V114.113H269.415V120.012H267.247V107.082H269.415ZM270.118 122.629V124.387H258.106V118.762H260.274V122.629H270.118ZM287.15 107.082V124.758H284.962V107.082H287.15ZM282.072 108.684V110.461H275.743V118.664C278.995 118.654 281.036 118.557 283.38 118.137L283.595 119.934C281.075 120.402 278.79 120.5 275.06 120.5H273.556V108.684H282.072ZM305.549 115.09V116.73H289.416V115.09H305.549ZM303.596 117.785V121.809H293.478V123.039H304.123V124.543H291.31V120.402H301.447V119.309H291.291V117.785H303.596ZM303.556 107.473V111.457H293.615V112.609H303.869V114.094H291.467V110.051H301.388V108.977H291.408V107.473H303.556ZM325.55 107.102V117.082H323.362V107.102H325.55ZM325.55 117.961V124.523H313.831V117.961H325.55ZM315.979 119.68V122.766H323.421V119.68H315.979ZM317.425 109.484C317.425 111.73 318.929 113.84 321.682 114.719L320.628 116.379C318.587 115.744 317.122 114.445 316.331 112.746C315.52 114.572 314.036 116.027 311.917 116.73L310.843 115.012C313.714 114.094 315.179 111.809 315.179 109.484V107.766H317.425V109.484ZM334.281 118.527C334.261 120.021 334.945 121.564 336.468 122.551C337.992 121.486 338.675 119.855 338.695 118.527V117.707H340.824V118.527C340.824 120.363 341.898 122.141 344.261 122.883L343.167 124.504C341.458 123.898 340.326 122.766 339.73 121.34C339.144 122.746 338.089 123.996 336.468 124.641C334.827 124.025 333.783 122.824 333.206 121.398C332.581 122.766 331.458 123.889 329.827 124.504L328.773 122.883C331.058 122.102 332.152 120.266 332.171 118.527V117.707H334.281V118.527ZM332.718 108.02C334.974 108.02 336.79 109.348 337.249 111.301H340.433V107.082H342.601V117.043H340.433V113.059H337.269C336.849 115.07 335.013 116.418 332.718 116.418C330.042 116.418 328.05 114.68 328.05 112.219C328.05 109.777 330.042 108.02 332.718 108.02ZM332.718 109.836C331.234 109.836 330.14 110.773 330.14 112.219C330.14 113.645 331.234 114.621 332.718 114.621C334.163 114.621 335.257 113.645 335.257 112.219C335.257 110.773 334.163 109.836 332.718 109.836ZM349.613 108.371C352.006 108.371 353.773 110.363 354.086 113.586H357.445V107.082H359.594V124.758H357.445V115.344H354.105C353.871 118.752 352.074 120.852 349.613 120.852C346.957 120.852 345.082 118.449 345.082 114.602C345.082 110.793 346.957 108.371 349.613 108.371ZM349.613 110.324C348.148 110.324 347.152 111.906 347.172 114.602C347.152 117.316 348.148 118.898 349.613 118.898C351.078 118.898 352.055 117.316 352.074 114.602C352.055 111.906 351.078 110.324 349.613 110.324ZM377.895 120.812V122.59H361.762V120.812H365.493V116.34C364.086 115.539 363.237 114.279 363.246 112.707C363.227 109.895 366 108.039 369.789 108.039C373.598 108.039 376.371 109.895 376.371 112.707C376.371 114.25 375.551 115.49 374.184 116.301V120.812H377.895ZM369.789 109.758C367.153 109.758 365.356 110.871 365.375 112.707C365.356 114.523 367.153 115.656 369.789 115.656C372.426 115.656 374.243 114.523 374.243 112.707C374.243 110.871 372.426 109.758 369.789 109.758ZM367.641 120.812H371.977V117.121C371.303 117.277 370.571 117.355 369.789 117.355C369.028 117.355 368.305 117.277 367.641 117.141V120.812ZM380.884 123.156C380.044 123.156 379.36 122.473 379.36 121.633C379.36 120.812 380.044 120.129 380.884 120.129C381.684 120.129 382.388 120.812 382.388 121.633C382.388 122.473 381.684 123.156 380.884 123.156Z" fill="#474747" fill-opacity="0.63"/>
<path d="M210.507 123.195C207.479 123.195 205.331 121.555 205.272 119.172H207.831C207.909 120.305 209.042 121.047 210.507 121.047C212.069 121.047 213.182 120.188 213.182 118.938C213.182 117.668 212.089 116.75 210.253 116.75H208.983V114.797H210.253C211.757 114.797 212.811 113.957 212.792 112.727C212.811 111.535 211.913 110.734 210.526 110.734C209.198 110.734 208.046 111.477 208.007 112.668H205.565C205.624 110.285 207.772 108.664 210.546 108.664C213.417 108.664 215.272 110.422 215.253 112.59C215.272 114.172 214.217 115.324 212.675 115.637V115.754C214.667 116.027 215.8 117.297 215.78 119.074C215.8 121.457 213.573 123.195 210.507 123.195ZM232.265 107.082V124.738H230.175V115.676H228.281V123.918H226.249V107.551H228.281V113.918H230.175V107.082H232.265ZM224.745 109.309C224.745 114.074 223.241 118.176 218.222 121.047L216.972 119.543C220.732 117.365 222.323 114.572 222.636 111.047H217.792V109.309H224.745Z" fill="#029764"/>
<path d="M146.553 142.797C148.662 142.812 150.209 144.109 150.225 145.938C150.209 147.781 148.662 149.062 146.553 149.062C144.428 149.062 142.865 147.781 142.865 145.938C142.865 144.109 144.428 142.812 146.553 142.797ZM146.553 144.047C145.256 144.031 144.303 144.797 144.318 145.938C144.303 147.094 145.256 147.859 146.553 147.859C147.834 147.859 148.787 147.094 148.787 145.938C148.787 144.797 147.834 144.031 146.553 144.047ZM154.193 142.328V149.453H152.709V142.328H154.193ZM154.193 150.094V153.625H146.475V154.969H154.662V156.156H145.037V152.516H152.725V151.281H144.99V150.094H154.193ZM167.957 142.328V156.328H166.457V142.328H167.957ZM163.785 143.828C163.785 147.922 162.035 151.484 157.238 153.781L156.457 152.578C160.183 150.805 161.996 148.281 162.285 145.016H157.129V143.828H163.785ZM182.845 148.75V149.891H170.033V148.75H182.845ZM181.267 150.875V153.953H173.048V155.109H181.704V156.156H171.564V152.969H179.798V151.938H171.548V150.875H181.267ZM181.236 142.688V145.719H173.142V146.781H181.47V147.828H171.673V144.734H179.751V143.734H171.642V142.688H181.236ZM191.934 145.156C191.934 146.477 192.567 148.125 193.981 149.094C195.372 148.141 196.012 146.516 196.012 145.156V143.406H197.512V145.156C197.497 146.859 198.419 148.609 200.294 149.391L199.481 150.5C198.137 149.914 197.231 148.82 196.747 147.516C196.278 148.859 195.387 150.047 193.965 150.672C192.536 150.047 191.63 148.812 191.169 147.469C190.676 148.758 189.77 149.898 188.45 150.5L187.653 149.391C189.481 148.578 190.434 146.719 190.45 145.156V143.406H191.934V145.156ZM200.387 153.266V154.484H187.59V153.266H200.387ZM212.651 143.672V145.047C212.651 146.781 212.651 148.719 212.12 151.578L210.62 151.422C211.166 148.719 211.166 146.734 211.166 145.047V144.875H202.666V143.672H212.651ZM214.088 153.203V154.438H201.323V153.203H206.182V148.266H207.651V153.203H214.088ZM217.57 153.922L216.32 158.234H214.992L215.82 153.922H217.57ZM227.753 145.156C227.753 146.984 229.003 148.688 231.16 149.422L230.332 150.531C228.785 150 227.636 148.906 227.035 147.531C226.417 149.07 225.199 150.297 223.55 150.891L222.769 149.703C224.941 148.953 226.253 147.094 226.269 145.156V144.688H223.222V143.5H230.769V144.688H227.753V145.156ZM233.863 142.312V146.547H235.894V147.781H233.863V152.562H232.378V142.312H233.863ZM234.457 154.828V156.031H224.988V151.625H226.472V154.828H234.457ZM248.189 142.328V156.359H246.704V142.328H248.189ZM244.189 143.625V144.859H238.986V151.656C241.642 151.648 243.337 151.578 245.314 151.219L245.47 152.453C243.376 152.828 241.548 152.922 238.642 152.922H237.486V143.625H244.189ZM263.124 148.75V149.891H250.311V148.75H263.124ZM261.546 150.875V153.953H253.327V155.109H261.983V156.156H251.843V152.969H260.077V151.938H251.827V150.875H261.546ZM261.514 142.688V145.719H253.421V146.781H261.749V147.828H251.952V144.734H260.03V143.734H251.921V142.688H261.514ZM274.979 143.625V144.859H270.057V151.688C272.401 151.68 274.018 151.594 275.854 151.234L276.026 152.453C274.01 152.828 272.307 152.922 269.666 152.922H268.557V143.625H274.979ZM279.557 142.328V156.359H278.073V148.562H274.182V147.328H278.073V142.328H279.557ZM297.021 142.344V150.266H295.537V142.344H297.021ZM297.021 151.016V156.156H287.818V151.016H297.021ZM289.287 152.203V154.953H295.568V152.203H289.287ZM290.505 144.234C290.49 146.125 291.849 147.828 293.974 148.547L293.24 149.688C291.615 149.148 290.396 148.039 289.755 146.594C289.13 148.133 287.888 149.359 286.209 149.953L285.474 148.781C287.662 148.047 288.99 146.188 288.99 144.234V142.875H290.505V144.234ZM302.941 143.375C304.839 143.375 306.23 144.984 306.456 147.578H309.347V142.328H310.816V156.359H309.347V148.781H306.472C306.308 151.508 304.886 153.203 302.941 153.203C300.847 153.203 299.378 151.297 299.394 148.281C299.378 145.281 300.847 143.375 302.941 143.375ZM302.941 144.703C301.675 144.703 300.8 146.078 300.8 148.281C300.8 150.5 301.675 151.875 302.941 151.875C304.206 151.875 305.081 150.5 305.081 148.281C305.081 146.078 304.206 144.703 302.941 144.703ZM325.689 153.359V154.594H312.876V153.359H318.517V150.484H314.345V143.281H315.829V145.688H322.704V143.281H324.173V150.484H319.985V153.359H325.689ZM315.829 149.281H322.704V146.891H315.829V149.281ZM330.874 146.156C330.874 148.391 331.811 150.781 333.686 151.922L332.858 153.062C331.546 152.273 330.655 150.875 330.186 149.25C329.663 151.031 328.702 152.547 327.342 153.375L326.421 152.266C328.405 151.078 329.436 148.609 329.436 146.219V143.609H330.874V146.156ZM338.655 142.328V156.328H337.233V142.328H338.655ZM335.749 142.594V155.641H334.342V148.484H332.171V147.25H334.342V142.594H335.749ZM353.153 153.344V154.578H340.34V153.344H343.403V149.688C342.254 149.055 341.559 148.047 341.559 146.797C341.559 144.594 343.715 143.141 346.715 143.141C349.731 143.141 351.887 144.594 351.887 146.797C351.887 148.031 351.215 149.023 350.09 149.656V153.344H353.153ZM346.715 144.328C344.512 144.328 342.997 145.281 342.997 146.797C342.997 148.297 344.512 149.281 346.715 149.281C348.903 149.281 350.45 148.297 350.45 146.797C350.45 145.281 348.903 144.328 346.715 144.328ZM344.872 153.344H348.59V150.219C348.02 150.367 347.387 150.438 346.715 150.438C346.059 150.438 345.434 150.367 344.872 150.234V153.344ZM356.651 143.688L356.51 151.734H354.963L354.822 143.688H356.651ZM355.744 155.109C355.135 155.109 354.619 154.609 354.635 154C354.619 153.391 355.135 152.891 355.744 152.891C356.338 152.891 356.854 153.391 356.854 154C356.854 154.609 356.338 155.109 355.744 155.109Z" fill="#474747" fill-opacity="0.63"/>
<g filter="url(#filter0_dd_3048_12895)">
<mask id="path-6-inside-2_3048_12895" fill="white">
<path d="M24 204C24 197.373 29.3726 192 36 192H68C74.6274 192 80 197.373 80 204V236C80 242.627 74.6274 248 68 248H36C29.3726 248 24 242.627 24 236V204Z"/>
</mask>
<path d="M24 204C24 197.373 29.3726 192 36 192H68C74.6274 192 80 197.373 80 204V236C80 242.627 74.6274 248 68 248H36C29.3726 248 24 242.627 24 236V204Z" fill="#00A66E"/>
<path d="M36 193H68V191H36V193ZM79 204V236H81V204H79ZM68 247H36V249H68V247ZM25 236V204H23V236H25ZM36 247C29.9249 247 25 242.075 25 236H23C23 243.18 28.8203 249 36 249V247ZM79 236C79 242.075 74.0751 247 68 247V249C75.1797 249 81 243.18 81 236H79ZM68 193C74.0751 193 79 197.925 79 204H81C81 196.82 75.1797 191 68 191V193ZM36 191C28.8203 191 23 196.82 23 204H25C25 197.925 29.9249 193 36 193V191Z" fill="#029764" mask="url(#path-6-inside-2_3048_12895)"/>
</g>
<g filter="url(#filter1_dd_3048_12895)">
<mask id="path-8-inside-3_3048_12895" fill="white">
<path d="M90 204C90 197.373 95.3726 192 102 192H134C140.627 192 146 197.373 146 204V236C146 242.627 140.627 248 134 248H102C95.3726 248 90 242.627 90 236V204Z"/>
</mask>
<path d="M90 204C90 197.373 95.3726 192 102 192H134C140.627 192 146 197.373 146 204V236C146 242.627 140.627 248 134 248H102C95.3726 248 90 242.627 90 236V204Z" fill="#00A66E"/>
<path d="M102 193H134V191H102V193ZM145 204V236H147V204H145ZM134 247H102V249H134V247ZM91 236V204H89V236H91ZM102 247C95.9249 247 91 242.075 91 236H89C89 243.18 94.8203 249 102 249V247ZM145 236C145 242.075 140.075 247 134 247V249C141.18 249 147 243.18 147 236H145ZM134 193C140.075 193 145 197.925 145 204H147C147 196.82 141.18 191 134 191V193ZM102 191C94.8203 191 89 196.82 89 204H91C91 197.925 95.9249 193 102 193V191Z" fill="#029764" mask="url(#path-8-inside-3_3048_12895)"/>
</g>
<g filter="url(#filter2_dd_3048_12895)">
<mask id="path-10-inside-4_3048_12895" fill="white">
<path d="M156 204C156 197.373 161.373 192 168 192H200C206.627 192 212 197.373 212 204V236C212 242.627 206.627 248 200 248H168C161.373 248 156 242.627 156 236V204Z"/>
</mask>
<path d="M156 204C156 197.373 161.373 192 168 192H200C206.627 192 212 197.373 212 204V236C212 242.627 206.627 248 200 248H168C161.373 248 156 242.627 156 236V204Z" fill="#00A66E"/>
<path d="M168 193H200V191H168V193ZM211 204V236H213V204H211ZM200 247H168V249H200V247ZM157 236V204H155V236H157ZM168 247C161.925 247 157 242.075 157 236H155C155 243.18 160.82 249 168 249V247ZM211 236C211 242.075 206.075 247 200 247V249C207.18 249 213 243.18 213 236H211ZM200 193C206.075 193 211 197.925 211 204H213C213 196.82 207.18 191 200 191V193ZM168 191C160.82 191 155 196.82 155 204H157C157 197.925 161.925 193 168 193V191Z" fill="#029764" mask="url(#path-10-inside-4_3048_12895)"/>
</g>
<g filter="url(#filter3_dd_3048_12895)">
<mask id="path-12-inside-5_3048_12895" fill="white">
<path d="M222 204C222 197.373 227.373 192 234 192H266C272.627 192 278 197.373 278 204V236C278 242.627 272.627 248 266 248H234C227.373 248 222 242.627 222 236V204Z"/>
</mask>
<path d="M222 204C222 197.373 227.373 192 234 192H266C272.627 192 278 197.373 278 204V236C278 242.627 272.627 248 266 248H234C227.373 248 222 242.627 222 236V204Z" fill="#9E9E9E" fill-opacity="0.15" shape-rendering="crispEdges"/>
<path d="M234 193H266V191H234V193ZM277 204V236H279V204H277ZM266 247H234V249H266V247ZM223 236V204H221V236H223ZM234 247C227.925 247 223 242.075 223 236H221C221 243.18 226.82 249 234 249V247ZM277 236C277 242.075 272.075 247 266 247V249C273.18 249 279 243.18 279 236H277ZM266 193C272.075 193 277 197.925 277 204H279C279 196.82 273.18 191 266 191V193ZM234 191C226.82 191 221 196.82 221 204H223C223 197.925 227.925 193 234 193V191Z" fill="#919191" fill-opacity="0.36" mask="url(#path-12-inside-5_3048_12895)"/>
</g>
<g filter="url(#filter4_dd_3048_12895)">
<mask id="path-14-inside-6_3048_12895" fill="white">
<path d="M288 204C288 197.373 293.373 192 300 192H332C338.627 192 344 197.373 344 204V236C344 242.627 338.627 248 332 248H300C293.373 248 288 242.627 288 236V204Z"/>
</mask>
<path d="M288 204C288 197.373 293.373 192 300 192H332C338.627 192 344 197.373 344 204V236C344 242.627 338.627 248 332 248H300C293.373 248 288 242.627 288 236V204Z" fill="#9E9E9E" fill-opacity="0.15" shape-rendering="crispEdges"/>
<path d="M300 193H332V191H300V193ZM343 204V236H345V204H343ZM332 247H300V249H332V247ZM289 236V204H287V236H289ZM300 247C293.925 247 289 242.075 289 236H287C287 243.18 292.82 249 300 249V247ZM343 236C343 242.075 338.075 247 332 247V249C339.18 249 345 243.18 345 236H343ZM332 193C338.075 193 343 197.925 343 204H345C345 196.82 339.18 191 332 191V193ZM300 191C292.82 191 287 196.82 287 204H289C289 197.925 293.925 193 300 193V191Z" fill="#919191" fill-opacity="0.36" mask="url(#path-14-inside-6_3048_12895)"/>
</g>
<g filter="url(#filter5_dd_3048_12895)">
<mask id="path-16-inside-7_3048_12895" fill="white">
<path d="M354 204C354 197.373 359.373 192 366 192H398C404.627 192 410 197.373 410 204V236C410 242.627 404.627 248 398 248H366C359.373 248 354 242.627 354 236V204Z"/>
</mask>
<path d="M354 204C354 197.373 359.373 192 366 192H398C404.627 192 410 197.373 410 204V236C410 242.627 404.627 248 398 248H366C359.373 248 354 242.627 354 236V204Z" fill="#9E9E9E" fill-opacity="0.15" shape-rendering="crispEdges"/>
<path d="M366 193H398V191H366V193ZM409 204V236H411V204H409ZM398 247H366V249H398V247ZM355 236V204H353V236H355ZM366 247C359.925 247 355 242.075 355 236H353C353 243.18 358.82 249 366 249V247ZM409 236C409 242.075 404.075 247 398 247V249C405.18 249 411 243.18 411 236H409ZM398 193C404.075 193 409 197.925 409 204H411C411 196.82 405.18 191 398 191V193ZM366 191C358.82 191 353 196.82 353 204H355C355 197.925 359.925 193 366 193V191Z" fill="#919191" fill-opacity="0.36" mask="url(#path-16-inside-7_3048_12895)"/>
</g>
<g filter="url(#filter6_dd_3048_12895)">
<mask id="path-18-inside-8_3048_12895" fill="white">
<path d="M420 204C420 197.373 425.373 192 432 192H464C470.627 192 476 197.373 476 204V236C476 242.627 470.627 248 464 248H432C425.373 248 420 242.627 420 236V204Z"/>
</mask>
<path d="M420 204C420 197.373 425.373 192 432 192H464C470.627 192 476 197.373 476 204V236C476 242.627 470.627 248 464 248H432C425.373 248 420 242.627 420 236V204Z" fill="#9E9E9E" fill-opacity="0.15" shape-rendering="crispEdges"/>
<path d="M432 193H464V191H432V193ZM475 204V236H477V204H475ZM464 247H432V249H464V247ZM421 236V204H419V236H421ZM432 247C425.925 247 421 242.075 421 236H419C419 243.18 424.82 249 432 249V247ZM475 236C475 242.075 470.075 247 464 247V249C471.18 249 477 243.18 477 236H475ZM464 193C470.075 193 475 197.925 475 204H477C477 196.82 471.18 191 464 191V193ZM432 191C424.82 191 419 196.82 419 204H421C421 197.925 425.925 193 432 193V191Z" fill="#919191" fill-opacity="0.36" mask="url(#path-18-inside-8_3048_12895)"/>
</g>
<g filter="url(#filter7_dd_3048_12895)">
<mask id="path-20-inside-9_3048_12895" fill="white">
<path d="M24 270C24 263.373 29.3726 258 36 258H68C74.6274 258 80 263.373 80 270V302C80 308.627 74.6274 314 68 314H36C29.3726 314 24 308.627 24 302V270Z"/>
</mask>
<path d="M24 270C24 263.373 29.3726 258 36 258H68C74.6274 258 80 263.373 80 270V302C80 308.627 74.6274 314 68 314H36C29.3726 314 24 308.627 24 302V270Z" fill="#9E9E9E" fill-opacity="0.15" shape-rendering="crispEdges"/>
<path d="M36 259H68V257H36V259ZM79 270V302H81V270H79ZM68 313H36V315H68V313ZM25 302V270H23V302H25ZM36 313C29.9249 313 25 308.075 25 302H23C23 309.18 28.8203 315 36 315V313ZM79 302C79 308.075 74.0751 313 68 313V315C75.1797 315 81 309.18 81 302H79ZM68 259C74.0751 259 79 263.925 79 270H81C81 262.82 75.1797 257 68 257V259ZM36 257C28.8203 257 23 262.82 23 270H25C25 263.925 29.9249 259 36 259V257Z" fill="#919191" fill-opacity="0.36" mask="url(#path-20-inside-9_3048_12895)"/>
</g>
<g filter="url(#filter8_dd_3048_12895)">
<mask id="path-22-inside-10_3048_12895" fill="white">
<path d="M90 270C90 263.373 95.3726 258 102 258H134C140.627 258 146 263.373 146 270V302C146 308.627 140.627 314 134 314H102C95.3726 314 90 308.627 90 302V270Z"/>
</mask>
<path d="M90 270C90 263.373 95.3726 258 102 258H134C140.627 258 146 263.373 146 270V302C146 308.627 140.627 314 134 314H102C95.3726 314 90 308.627 90 302V270Z" fill="#9E9E9E" fill-opacity="0.15" shape-rendering="crispEdges"/>
<path d="M102 259H134V257H102V259ZM145 270V302H147V270H145ZM134 313H102V315H134V313ZM91 302V270H89V302H91ZM102 313C95.9249 313 91 308.075 91 302H89C89 309.18 94.8203 315 102 315V313ZM145 302C145 308.075 140.075 313 134 313V315C141.18 315 147 309.18 147 302H145ZM134 259C140.075 259 145 263.925 145 270H147C147 262.82 141.18 257 134 257V259ZM102 257C94.8203 257 89 262.82 89 270H91C91 263.925 95.9249 259 102 259V257Z" fill="#919191" fill-opacity="0.36" mask="url(#path-22-inside-10_3048_12895)"/>
</g>
<g filter="url(#filter9_dd_3048_12895)">
<mask id="path-24-inside-11_3048_12895" fill="white">
<path d="M156 270C156 263.373 161.373 258 168 258H200C206.627 258 212 263.373 212 270V302C212 308.627 206.627 314 200 314H168C161.373 314 156 308.627 156 302V270Z"/>
</mask>
<path d="M156 270C156 263.373 161.373 258 168 258H200C206.627 258 212 263.373 212 270V302C212 308.627 206.627 314 200 314H168C161.373 314 156 308.627 156 302V270Z" fill="#9E9E9E" fill-opacity="0.15" shape-rendering="crispEdges"/>
<path d="M168 259H200V257H168V259ZM211 270V302H213V270H211ZM200 313H168V315H200V313ZM157 302V270H155V302H157ZM168 313C161.925 313 157 308.075 157 302H155C155 309.18 160.82 315 168 315V313ZM211 302C211 308.075 206.075 313 200 313V315C207.18 315 213 309.18 213 302H211ZM200 259C206.075 259 211 263.925 211 270H213C213 262.82 207.18 257 200 257V259ZM168 257C160.82 257 155 262.82 155 270H157C157 263.925 161.925 259 168 259V257Z" fill="#919191" fill-opacity="0.36" mask="url(#path-24-inside-11_3048_12895)"/>
</g>
<g filter="url(#filter10_dd_3048_12895)">
<mask id="path-26-inside-12_3048_12895" fill="white">
<path d="M222 270C222 263.373 227.373 258 234 258H266C272.627 258 278 263.373 278 270V302C278 308.627 272.627 314 266 314H234C227.373 314 222 308.627 222 302V270Z"/>
</mask>
<path d="M222 270C222 263.373 227.373 258 234 258H266C272.627 258 278 263.373 278 270V302C278 308.627 272.627 314 266 314H234C227.373 314 222 308.627 222 302V270Z" fill="#9E9E9E" fill-opacity="0.15" shape-rendering="crispEdges"/>
<path d="M234 259H266V257H234V259ZM277 270V302H279V270H277ZM266 313H234V315H266V313ZM223 302V270H221V302H223ZM234 313C227.925 313 223 308.075 223 302H221C221 309.18 226.82 315 234 315V313ZM277 302C277 308.075 272.075 313 266 313V315C273.18 315 279 309.18 279 302H277ZM266 259C272.075 259 277 263.925 277 270H279C279 262.82 273.18 257 266 257V259ZM234 257C226.82 257 221 262.82 221 270H223C223 263.925 227.925 259 234 259V257Z" fill="#919191" fill-opacity="0.36" mask="url(#path-26-inside-12_3048_12895)"/>
</g>
<g filter="url(#filter11_dd_3048_12895)">
<mask id="path-28-inside-13_3048_12895" fill="white">
<path d="M288 270C288 263.373 293.373 258 300 258H332C338.627 258 344 263.373 344 270V302C344 308.627 338.627 314 332 314H300C293.373 314 288 308.627 288 302V270Z"/>
</mask>
<path d="M288 270C288 263.373 293.373 258 300 258H332C338.627 258 344 263.373 344 270V302C344 308.627 338.627 314 332 314H300C293.373 314 288 308.627 288 302V270Z" fill="#9E9E9E" fill-opacity="0.15" shape-rendering="crispEdges"/>
<path d="M300 259H332V257H300V259ZM343 270V302H345V270H343ZM332 313H300V315H332V313ZM289 302V270H287V302H289ZM300 313C293.925 313 289 308.075 289 302H287C287 309.18 292.82 315 300 315V313ZM343 302C343 308.075 338.075 313 332 313V315C339.18 315 345 309.18 345 302H343ZM332 259C338.075 259 343 263.925 343 270H345C345 262.82 339.18 257 332 257V259ZM300 257C292.82 257 287 262.82 287 270H289C289 263.925 293.925 259 300 259V257Z" fill="#919191" fill-opacity="0.36" mask="url(#path-28-inside-13_3048_12895)"/>
</g>
<g filter="url(#filter12_dd_3048_12895)">
<mask id="path-30-inside-14_3048_12895" fill="white">
<path d="M354 270C354 263.373 359.373 258 366 258H398C404.627 258 410 263.373 410 270V302C410 308.627 404.627 314 398 314H366C359.373 314 354 308.627 354 302V270Z"/>
</mask>
<path d="M354 270C354 263.373 359.373 258 366 258H398C404.627 258 410 263.373 410 270V302C410 308.627 404.627 314 398 314H366C359.373 314 354 308.627 354 302V270Z" fill="#9E9E9E" fill-opacity="0.15" shape-rendering="crispEdges"/>
<path d="M366 259H398V257H366V259ZM409 270V302H411V270H409ZM398 313H366V315H398V313ZM355 302V270H353V302H355ZM366 313C359.925 313 355 308.075 355 302H353C353 309.18 358.82 315 366 315V313ZM409 302C409 308.075 404.075 313 398 313V315C405.18 315 411 309.18 411 302H409ZM398 259C404.075 259 409 263.925 409 270H411C411 262.82 405.18 257 398 257V259ZM366 257C358.82 257 353 262.82 353 270H355C355 263.925 359.925 259 366 259V257Z" fill="#919191" fill-opacity="0.36" mask="url(#path-30-inside-14_3048_12895)"/>
</g>
<g filter="url(#filter13_dd_3048_12895)">
<mask id="path-32-inside-15_3048_12895" fill="white">
<path d="M420 270C420 263.373 425.373 258 432 258H464C470.627 258 476 263.373 476 270V302C476 308.627 470.627 314 464 314H432C425.373 314 420 308.627 420 302V270Z"/>
</mask>
<path d="M420 270C420 263.373 425.373 258 432 258H464C470.627 258 476 263.373 476 270V302C476 308.627 470.627 314 464 314H432C425.373 314 420 308.627 420 302V270Z" fill="#9E9E9E" fill-opacity="0.15" shape-rendering="crispEdges"/>
<path d="M432 259H464V257H432V259ZM475 270V302H477V270H475ZM464 313H432V315H464V313ZM421 302V270H419V302H421ZM432 313C425.925 313 421 308.075 421 302H419C419 309.18 424.82 315 432 315V313ZM475 302C475 308.075 470.075 313 464 313V315C471.18 315 477 309.18 477 302H475ZM464 259C470.075 259 475 263.925 475 270H477C477 262.82 471.18 257 464 257V259ZM432 257C424.82 257 419 262.82 419 270H421C421 263.925 425.925 259 432 259V257Z" fill="#919191" fill-opacity="0.36" mask="url(#path-32-inside-15_3048_12895)"/>
</g>
<g filter="url(#filter14_dd_3048_12895)">
<mask id="path-34-inside-16_3048_12895" fill="white">
<path d="M24 336C24 329.373 29.3726 324 36 324H68C74.6274 324 80 329.373 80 336V368C80 374.627 74.6274 380 68 380H36C29.3726 380 24 374.627 24 368V336Z"/>
</mask>
<path d="M24 336C24 329.373 29.3726 324 36 324H68C74.6274 324 80 329.373 80 336V368C80 374.627 74.6274 380 68 380H36C29.3726 380 24 374.627 24 368V336Z" fill="#9E9E9E" fill-opacity="0.15" shape-rendering="crispEdges"/>
<path d="M36 325H68V323H36V325ZM79 336V368H81V336H79ZM68 379H36V381H68V379ZM25 368V336H23V368H25ZM36 379C29.9249 379 25 374.075 25 368H23C23 375.18 28.8203 381 36 381V379ZM79 368C79 374.075 74.0751 379 68 379V381C75.1797 381 81 375.18 81 368H79ZM68 325C74.0751 325 79 329.925 79 336H81C81 328.82 75.1797 323 68 323V325ZM36 323C28.8203 323 23 328.82 23 336H25C25 329.925 29.9249 325 36 325V323Z" fill="#919191" fill-opacity="0.36" mask="url(#path-34-inside-16_3048_12895)"/>
</g>
<g filter="url(#filter15_dd_3048_12895)">
<mask id="path-36-inside-17_3048_12895" fill="white">
<path d="M90 336C90 329.373 95.3726 324 102 324H134C140.627 324 146 329.373 146 336V368C146 374.627 140.627 380 134 380H102C95.3726 380 90 374.627 90 368V336Z"/>
</mask>
<path d="M90 336C90 329.373 95.3726 324 102 324H134C140.627 324 146 329.373 146 336V368C146 374.627 140.627 380 134 380H102C95.3726 380 90 374.627 90 368V336Z" fill="#9E9E9E" fill-opacity="0.15" shape-rendering="crispEdges"/>
<path d="M102 325H134V323H102V325ZM145 336V368H147V336H145ZM134 379H102V381H134V379ZM91 368V336H89V368H91ZM102 379C95.9249 379 91 374.075 91 368H89C89 375.18 94.8203 381 102 381V379ZM145 368C145 374.075 140.075 379 134 379V381C141.18 381 147 375.18 147 368H145ZM134 325C140.075 325 145 329.925 145 336H147C147 328.82 141.18 323 134 323V325ZM102 323C94.8203 323 89 328.82 89 336H91C91 329.925 95.9249 325 102 325V323Z" fill="#919191" fill-opacity="0.36" mask="url(#path-36-inside-17_3048_12895)"/>
</g>
<g filter="url(#filter16_dd_3048_12895)">
<mask id="path-38-inside-18_3048_12895" fill="white">
<path d="M156 336C156 329.373 161.373 324 168 324H200C206.627 324 212 329.373 212 336V368C212 374.627 206.627 380 200 380H168C161.373 380 156 374.627 156 368V336Z"/>
</mask>
<path d="M156 336C156 329.373 161.373 324 168 324H200C206.627 324 212 329.373 212 336V368C212 374.627 206.627 380 200 380H168C161.373 380 156 374.627 156 368V336Z" fill="#9E9E9E" fill-opacity="0.15" shape-rendering="crispEdges"/>
<path d="M168 325H200V323H168V325ZM211 336V368H213V336H211ZM200 379H168V381H200V379ZM157 368V336H155V368H157ZM168 379C161.925 379 157 374.075 157 368H155C155 375.18 160.82 381 168 381V379ZM211 368C211 374.075 206.075 379 200 379V381C207.18 381 213 375.18 213 368H211ZM200 325C206.075 325 211 329.925 211 336H213C213 328.82 207.18 323 200 323V325ZM168 323C160.82 323 155 328.82 155 336H157C157 329.925 161.925 325 168 325V323Z" fill="#919191" fill-opacity="0.36" mask="url(#path-38-inside-18_3048_12895)"/>
</g>
<g filter="url(#filter17_dd_3048_12895)">
<mask id="path-40-inside-19_3048_12895" fill="white">
<path d="M222 336C222 329.373 227.373 324 234 324H266C272.627 324 278 329.373 278 336V368C278 374.627 272.627 380 266 380H234C227.373 380 222 374.627 222 368V336Z"/>
</mask>
<path d="M222 336C222 329.373 227.373 324 234 324H266C272.627 324 278 329.373 278 336V368C278 374.627 272.627 380 266 380H234C227.373 380 222 374.627 222 368V336Z" fill="#9E9E9E" fill-opacity="0.15" shape-rendering="crispEdges"/>
<path d="M234 325H266V323H234V325ZM277 336V368H279V336H277ZM266 379H234V381H266V379ZM223 368V336H221V368H223ZM234 379C227.925 379 223 374.075 223 368H221C221 375.18 226.82 381 234 381V379ZM277 368C277 374.075 272.075 379 266 379V381C273.18 381 279 375.18 279 368H277ZM266 325C272.075 325 277 329.925 277 336H279C279 328.82 273.18 323 266 323V325ZM234 323C226.82 323 221 328.82 221 336H223C223 329.925 227.925 325 234 325V323Z" fill="#919191" fill-opacity="0.36" mask="url(#path-40-inside-19_3048_12895)"/>
</g>
<g filter="url(#filter18_dd_3048_12895)">
<mask id="path-42-inside-20_3048_12895" fill="white">
<path d="M288 336C288 329.373 293.373 324 300 324H332C338.627 324 344 329.373 344 336V368C344 374.627 338.627 380 332 380H300C293.373 380 288 374.627 288 368V336Z"/>
</mask>
<path d="M288 336C288 329.373 293.373 324 300 324H332C338.627 324 344 329.373 344 336V368C344 374.627 338.627 380 332 380H300C293.373 380 288 374.627 288 368V336Z" fill="#9E9E9E" fill-opacity="0.15" shape-rendering="crispEdges"/>
<path d="M300 325H332V323H300V325ZM343 336V368H345V336H343ZM332 379H300V381H332V379ZM289 368V336H287V368H289ZM300 379C293.925 379 289 374.075 289 368H287C287 375.18 292.82 381 300 381V379ZM343 368C343 374.075 338.075 379 332 379V381C339.18 381 345 375.18 345 368H343ZM332 325C338.075 325 343 329.925 343 336H345C345 328.82 339.18 323 332 323V325ZM300 323C292.82 323 287 328.82 287 336H289C289 329.925 293.925 325 300 325V323Z" fill="#919191" fill-opacity="0.36" mask="url(#path-42-inside-20_3048_12895)"/>
</g>
<g filter="url(#filter19_dd_3048_12895)">
<mask id="path-44-inside-21_3048_12895" fill="white">
<path d="M354 336C354 329.373 359.373 324 366 324H398C404.627 324 410 329.373 410 336V368C410 374.627 404.627 380 398 380H366C359.373 380 354 374.627 354 368V336Z"/>
</mask>
<path d="M354 336C354 329.373 359.373 324 366 324H398C404.627 324 410 329.373 410 336V368C410 374.627 404.627 380 398 380H366C359.373 380 354 374.627 354 368V336Z" fill="#9E9E9E" fill-opacity="0.15" shape-rendering="crispEdges"/>
<path d="M366 325H398V323H366V325ZM409 336V368H411V336H409ZM398 379H366V381H398V379ZM355 368V336H353V368H355ZM366 379C359.925 379 355 374.075 355 368H353C353 375.18 358.82 381 366 381V379ZM409 368C409 374.075 404.075 379 398 379V381C405.18 381 411 375.18 411 368H409ZM398 325C404.075 325 409 329.925 409 336H411C411 328.82 405.18 323 398 323V325ZM366 323C358.82 323 353 328.82 353 336H355C355 329.925 359.925 325 366 325V323Z" fill="#919191" fill-opacity="0.36" mask="url(#path-44-inside-21_3048_12895)"/>
</g>
<g filter="url(#filter20_dd_3048_12895)">
<mask id="path-46-inside-22_3048_12895" fill="white">
<path d="M420 336C420 329.373 425.373 324 432 324H464C470.627 324 476 329.373 476 336V368C476 374.627 470.627 380 464 380H432C425.373 380 420 374.627 420 368V336Z"/>
</mask>
<path d="M420 336C420 329.373 425.373 324 432 324H464C470.627 324 476 329.373 476 336V368C476 374.627 470.627 380 464 380H432C425.373 380 420 374.627 420 368V336Z" fill="#9E9E9E" fill-opacity="0.15" shape-rendering="crispEdges"/>
<path d="M432 325H464V323H432V325ZM475 336V368H477V336H475ZM464 379H432V381H464V379ZM421 368V336H419V368H421ZM432 379C425.925 379 421 374.075 421 368H419C419 375.18 424.82 381 432 381V379ZM475 368C475 374.075 470.075 379 464 379V381C471.18 381 477 375.18 477 368H475ZM464 325C470.075 325 475 329.925 475 336H477C477 328.82 471.18 323 464 323V325ZM432 323C424.82 323 419 328.82 419 336H421C421 329.925 425.925 325 432 325V323Z" fill="#919191" fill-opacity="0.36" mask="url(#path-46-inside-22_3048_12895)"/>
</g>
<g filter="url(#filter21_dd_3048_12895)">
<mask id="path-48-inside-23_3048_12895" fill="white">
<path d="M24 402C24 395.373 29.3726 390 36 390H68C74.6274 390 80 395.373 80 402V434C80 440.627 74.6274 446 68 446H36C29.3726 446 24 440.627 24 434V402Z"/>
</mask>
<path d="M24 402C24 395.373 29.3726 390 36 390H68C74.6274 390 80 395.373 80 402V434C80 440.627 74.6274 446 68 446H36C29.3726 446 24 440.627 24 434V402Z" fill="#9E9E9E" fill-opacity="0.15" shape-rendering="crispEdges"/>
<path d="M36 391H68V389H36V391ZM79 402V434H81V402H79ZM68 445H36V447H68V445ZM25 434V402H23V434H25ZM36 445C29.9249 445 25 440.075 25 434H23C23 441.18 28.8203 447 36 447V445ZM79 434C79 440.075 74.0751 445 68 445V447C75.1797 447 81 441.18 81 434H79ZM68 391C74.0751 391 79 395.925 79 402H81C81 394.82 75.1797 389 68 389V391ZM36 389C28.8203 389 23 394.82 23 402H25C25 395.925 29.9249 391 36 391V389Z" fill="#919191" fill-opacity="0.36" mask="url(#path-48-inside-23_3048_12895)"/>
</g>
<g filter="url(#filter22_dd_3048_12895)">
<mask id="path-50-inside-24_3048_12895" fill="white">
<path d="M90 402C90 395.373 95.3726 390 102 390H134C140.627 390 146 395.373 146 402V434C146 440.627 140.627 446 134 446H102C95.3726 446 90 440.627 90 434V402Z"/>
</mask>
<path d="M90 402C90 395.373 95.3726 390 102 390H134C140.627 390 146 395.373 146 402V434C146 440.627 140.627 446 134 446H102C95.3726 446 90 440.627 90 434V402Z" fill="#9E9E9E" fill-opacity="0.15" shape-rendering="crispEdges"/>
<path d="M102 391H134V389H102V391ZM145 402V434H147V402H145ZM134 445H102V447H134V445ZM91 434V402H89V434H91ZM102 445C95.9249 445 91 440.075 91 434H89C89 441.18 94.8203 447 102 447V445ZM145 434C145 440.075 140.075 445 134 445V447C141.18 447 147 441.18 147 434H145ZM134 391C140.075 391 145 395.925 145 402H147C147 394.82 141.18 389 134 389V391ZM102 389C94.8203 389 89 394.82 89 402H91C91 395.925 95.9249 391 102 391V389Z" fill="#919191" fill-opacity="0.36" mask="url(#path-50-inside-24_3048_12895)"/>
</g>
<g filter="url(#filter23_dd_3048_12895)">
<mask id="path-52-inside-25_3048_12895" fill="white">
<path d="M156 402C156 395.373 161.373 390 168 390H200C206.627 390 212 395.373 212 402V434C212 440.627 206.627 446 200 446H168C161.373 446 156 440.627 156 434V402Z"/>
</mask>
<path d="M156 402C156 395.373 161.373 390 168 390H200C206.627 390 212 395.373 212 402V434C212 440.627 206.627 446 200 446H168C161.373 446 156 440.627 156 434V402Z" fill="#9E9E9E" fill-opacity="0.15" shape-rendering="crispEdges"/>
<path d="M168 391H200V389H168V391ZM211 402V434H213V402H211ZM200 445H168V447H200V445ZM157 434V402H155V434H157ZM168 445C161.925 445 157 440.075 157 434H155C155 441.18 160.82 447 168 447V445ZM211 434C211 440.075 206.075 445 200 445V447C207.18 447 213 441.18 213 434H211ZM200 391C206.075 391 211 395.925 211 402H213C213 394.82 207.18 389 200 389V391ZM168 389C160.82 389 155 394.82 155 402H157C157 395.925 161.925 391 168 391V389Z" fill="#919191" fill-opacity="0.36" mask="url(#path-52-inside-25_3048_12895)"/>
</g>
<g filter="url(#filter24_dd_3048_12895)">
<mask id="path-54-inside-26_3048_12895" fill="white">
<path d="M222 402C222 395.373 227.373 390 234 390H266C272.627 390 278 395.373 278 402V434C278 440.627 272.627 446 266 446H234C227.373 446 222 440.627 222 434V402Z"/>
</mask>
<path d="M222 402C222 395.373 227.373 390 234 390H266C272.627 390 278 395.373 278 402V434C278 440.627 272.627 446 266 446H234C227.373 446 222 440.627 222 434V402Z" fill="#9E9E9E" fill-opacity="0.15" shape-rendering="crispEdges"/>
<path d="M234 391H266V389H234V391ZM277 402V434H279V402H277ZM266 445H234V447H266V445ZM223 434V402H221V434H223ZM234 445C227.925 445 223 440.075 223 434H221C221 441.18 226.82 447 234 447V445ZM277 434C277 440.075 272.075 445 266 445V447C273.18 447 279 441.18 279 434H277ZM266 391C272.075 391 277 395.925 277 402H279C279 394.82 273.18 389 266 389V391ZM234 389C226.82 389 221 394.82 221 402H223C223 395.925 227.925 391 234 391V389Z" fill="#919191" fill-opacity="0.36" mask="url(#path-54-inside-26_3048_12895)"/>
</g>
<g filter="url(#filter25_dd_3048_12895)">
<mask id="path-56-inside-27_3048_12895" fill="white">
<path d="M288 402C288 395.373 293.373 390 300 390H332C338.627 390 344 395.373 344 402V434C344 440.627 338.627 446 332 446H300C293.373 446 288 440.627 288 434V402Z"/>
</mask>
<path d="M288 402C288 395.373 293.373 390 300 390H332C338.627 390 344 395.373 344 402V434C344 440.627 338.627 446 332 446H300C293.373 446 288 440.627 288 434V402Z" fill="#9E9E9E" fill-opacity="0.15" shape-rendering="crispEdges"/>
<path d="M300 391H332V389H300V391ZM343 402V434H345V402H343ZM332 445H300V447H332V445ZM289 434V402H287V434H289ZM300 445C293.925 445 289 440.075 289 434H287C287 441.18 292.82 447 300 447V445ZM343 434C343 440.075 338.075 445 332 445V447C339.18 447 345 441.18 345 434H343ZM332 391C338.075 391 343 395.925 343 402H345C345 394.82 339.18 389 332 389V391ZM300 389C292.82 389 287 394.82 287 402H289C289 395.925 293.925 391 300 391V389Z" fill="#919191" fill-opacity="0.36" mask="url(#path-56-inside-27_3048_12895)"/>
</g>
<g filter="url(#filter26_dd_3048_12895)">
<mask id="path-58-inside-28_3048_12895" fill="white">
<path d="M354 402C354 395.373 359.373 390 366 390H398C404.627 390 410 395.373 410 402V434C410 440.627 404.627 446 398 446H366C359.373 446 354 440.627 354 434V402Z"/>
</mask>
<path d="M354 402C354 395.373 359.373 390 366 390H398C404.627 390 410 395.373 410 402V434C410 440.627 404.627 446 398 446H366C359.373 446 354 440.627 354 434V402Z" fill="#9E9E9E" fill-opacity="0.15" shape-rendering="crispEdges"/>
<path d="M366 391H398V389H366V391ZM409 402V434H411V402H409ZM398 445H366V447H398V445ZM355 434V402H353V434H355ZM366 445C359.925 445 355 440.075 355 434H353C353 441.18 358.82 447 366 447V445ZM409 434C409 440.075 404.075 445 398 445V447C405.18 447 411 441.18 411 434H409ZM398 391C404.075 391 409 395.925 409 402H411C411 394.82 405.18 389 398 389V391ZM366 389C358.82 389 353 394.82 353 402H355C355 395.925 359.925 391 366 391V389Z" fill="#919191" fill-opacity="0.36" mask="url(#path-58-inside-28_3048_12895)"/>
</g>
<g filter="url(#filter27_dd_3048_12895)">
<mask id="path-60-inside-29_3048_12895" fill="white">
<path d="M420 402C420 395.373 425.373 390 432 390H464C470.627 390 476 395.373 476 402V434C476 440.627 470.627 446 464 446H432C425.373 446 420 440.627 420 434V402Z"/>
</mask>
<path d="M420 402C420 395.373 425.373 390 432 390H464C470.627 390 476 395.373 476 402V434C476 440.627 470.627 446 464 446H432C425.373 446 420 440.627 420 434V402Z" fill="#9E9E9E" fill-opacity="0.15" shape-rendering="crispEdges"/>
<path d="M432 391H464V389H432V391ZM475 402V434H477V402H475ZM464 445H432V447H464V445ZM421 434V402H419V434H421ZM432 445C425.925 445 421 440.075 421 434H419C419 441.18 424.82 447 432 447V445ZM475 434C475 440.075 470.075 445 464 445V447C471.18 447 477 441.18 477 434H475ZM464 391C470.075 391 475 395.925 475 402H477C477 394.82 471.18 389 464 389V391ZM432 389C424.82 389 419 394.82 419 402H421C421 395.925 425.925 391 432 391V389Z" fill="#919191" fill-opacity="0.36" mask="url(#path-60-inside-29_3048_12895)"/>
</g>
<g filter="url(#filter28_dd_3048_12895)">
<mask id="path-62-inside-30_3048_12895" fill="white">
<path d="M24 468C24 461.373 29.3726 456 36 456H68C74.6274 456 80 461.373 80 468V500C80 506.627 74.6274 512 68 512H36C29.3726 512 24 506.627 24 500V468Z"/>
</mask>
<path d="M24 468C24 461.373 29.3726 456 36 456H68C74.6274 456 80 461.373 80 468V500C80 506.627 74.6274 512 68 512H36C29.3726 512 24 506.627 24 500V468Z" fill="#9E9E9E" fill-opacity="0.15" shape-rendering="crispEdges"/>
<path d="M36 457H68V455H36V457ZM79 468V500H81V468H79ZM68 511H36V513H68V511ZM25 500V468H23V500H25ZM36 511C29.9249 511 25 506.075 25 500H23C23 507.18 28.8203 513 36 513V511ZM79 500C79 506.075 74.0751 511 68 511V513C75.1797 513 81 507.18 81 500H79ZM68 457C74.0751 457 79 461.925 79 468H81C81 460.82 75.1797 455 68 455V457ZM36 455C28.8203 455 23 460.82 23 468H25C25 461.925 29.9249 457 36 457V455Z" fill="#919191" fill-opacity="0.36" mask="url(#path-62-inside-30_3048_12895)"/>
</g>
<g filter="url(#filter29_dd_3048_12895)">
<mask id="path-64-inside-31_3048_12895" fill="white">
<path d="M90 468C90 461.373 95.3726 456 102 456H134C140.627 456 146 461.373 146 468V500C146 506.627 140.627 512 134 512H102C95.3726 512 90 506.627 90 500V468Z"/>
</mask>
<path d="M90 468C90 461.373 95.3726 456 102 456H134C140.627 456 146 461.373 146 468V500C146 506.627 140.627 512 134 512H102C95.3726 512 90 506.627 90 500V468Z" fill="#9E9E9E" fill-opacity="0.15" shape-rendering="crispEdges"/>
<path d="M102 457H134V455H102V457ZM145 468V500H147V468H145ZM134 511H102V513H134V511ZM91 500V468H89V500H91ZM102 511C95.9249 511 91 506.075 91 500H89C89 507.18 94.8203 513 102 513V511ZM145 500C145 506.075 140.075 511 134 511V513C141.18 513 147 507.18 147 500H145ZM134 457C140.075 457 145 461.925 145 468H147C147 460.82 141.18 455 134 455V457ZM102 455C94.8203 455 89 460.82 89 468H91C91 461.925 95.9249 457 102 457V455Z" fill="#919191" fill-opacity="0.36" mask="url(#path-64-inside-31_3048_12895)"/>
</g>
<g filter="url(#filter30_dd_3048_12895)">
<mask id="path-66-inside-32_3048_12895" fill="white">
<path d="M156 468C156 461.373 161.373 456 168 456H200C206.627 456 212 461.373 212 468V500C212 506.627 206.627 512 200 512H168C161.373 512 156 506.627 156 500V468Z"/>
</mask>
<path d="M156 468C156 461.373 161.373 456 168 456H200C206.627 456 212 461.373 212 468V500C212 506.627 206.627 512 200 512H168C161.373 512 156 506.627 156 500V468Z" fill="#9E9E9E" fill-opacity="0.15" shape-rendering="crispEdges"/>
<path d="M168 457H200V455H168V457ZM211 468V500H213V468H211ZM200 511H168V513H200V511ZM157 500V468H155V500H157ZM168 511C161.925 511 157 506.075 157 500H155C155 507.18 160.82 513 168 513V511ZM211 500C211 506.075 206.075 511 200 511V513C207.18 513 213 507.18 213 500H211ZM200 457C206.075 457 211 461.925 211 468H213C213 460.82 207.18 455 200 455V457ZM168 455C160.82 455 155 460.82 155 468H157C157 461.925 161.925 457 168 457V455Z" fill="#919191" fill-opacity="0.36" mask="url(#path-66-inside-32_3048_12895)"/>
</g>
<defs>
<filter id="filter0_dd_3048_12895" x="20" y="190" width="64" height="64" filterUnits="userSpaceOnUse" color-interpolation-filters="sRGB">
<feFlood flood-opacity="0" result="BackgroundImageFix"/>
<feColorMatrix in="SourceAlpha" type="matrix" values="0 0 0 0 0 0 0 0 0 0 0 0 0 0 0 0 0 0 127 0" result="hardAlpha"/>
<feOffset dy="2"/>
<feGaussianBlur stdDeviation="2"/>
<feComposite in2="hardAlpha" operator="out"/>
<feColorMatrix type="matrix" values="0 0 0 0 0 0 0 0 0 0 0 0 0 0 0 0 0 0 0.08 0"/>
<feBlend mode="normal" in2="BackgroundImageFix" result="effect1_dropShadow_3048_12895"/>
<feColorMatrix in="SourceAlpha" type="matrix" values="0 0 0 0 0 0 0 0 0 0 0 0 0 0 0 0 0 0 127 0" result="hardAlpha"/>
<feOffset/>
<feGaussianBlur stdDeviation="0.5"/>
<feComposite in2="hardAlpha" operator="out"/>
<feColorMatrix type="matrix" values="0 0 0 0 0 0 0 0 0 0 0 0 0 0 0 0 0 0 0.04 0"/>
<feBlend mode="normal" in2="effect1_dropShadow_3048_12895" result="effect2_dropShadow_3048_12895"/>
<feBlend mode="normal" in="SourceGraphic" in2="effect2_dropShadow_3048_12895" result="shape"/>
</filter>
<filter id="filter1_dd_3048_12895" x="86" y="190" width="64" height="64" filterUnits="userSpaceOnUse" color-interpolation-filters="sRGB">
<feFlood flood-opacity="0" result="BackgroundImageFix"/>
<feColorMatrix in="SourceAlpha" type="matrix" values="0 0 0 0 0 0 0 0 0 0 0 0 0 0 0 0 0 0 127 0" result="hardAlpha"/>
<feOffset dy="2"/>
<feGaussianBlur stdDeviation="2"/>
<feComposite in2="hardAlpha" operator="out"/>
<feColorMatrix type="matrix" values="0 0 0 0 0 0 0 0 0 0 0 0 0 0 0 0 0 0 0.08 0"/>
<feBlend mode="normal" in2="BackgroundImageFix" result="effect1_dropShadow_3048_12895"/>
<feColorMatrix in="SourceAlpha" type="matrix" values="0 0 0 0 0 0 0 0 0 0 0 0 0 0 0 0 0 0 127 0" result="hardAlpha"/>
<feOffset/>
<feGaussianBlur stdDeviation="0.5"/>
<feComposite in2="hardAlpha" operator="out"/>
<feColorMatrix type="matrix" values="0 0 0 0 0 0 0 0 0 0 0 0 0 0 0 0 0 0 0.04 0"/>
<feBlend mode="normal" in2="effect1_dropShadow_3048_12895" result="effect2_dropShadow_3048_12895"/>
<feBlend mode="normal" in="SourceGraphic" in2="effect2_dropShadow_3048_12895" result="shape"/>
</filter>
<filter id="filter2_dd_3048_12895" x="152" y="190" width="64" height="64" filterUnits="userSpaceOnUse" color-interpolation-filters="sRGB">
<feFlood flood-opacity="0" result="BackgroundImageFix"/>
<feColorMatrix in="SourceAlpha" type="matrix" values="0 0 0 0 0 0 0 0 0 0 0 0 0 0 0 0 0 0 127 0" result="hardAlpha"/>
<feOffset dy="2"/>
<feGaussianBlur stdDeviation="2"/>
<feComposite in2="hardAlpha" operator="out"/>
<feColorMatrix type="matrix" values="0 0 0 0 0 0 0 0 0 0 0 0 0 0 0 0 0 0 0.08 0"/>
<feBlend mode="normal" in2="BackgroundImageFix" result="effect1_dropShadow_3048_12895"/>
<feColorMatrix in="SourceAlpha" type="matrix" values="0 0 0 0 0 0 0 0 0 0 0 0 0 0 0 0 0 0 127 0" result="hardAlpha"/>
<feOffset/>
<feGaussianBlur stdDeviation="0.5"/>
<feComposite in2="hardAlpha" operator="out"/>
<feColorMatrix type="matrix" values="0 0 0 0 0 0 0 0 0 0 0 0 0 0 0 0 0 0 0.04 0"/>
<feBlend mode="normal" in2="effect1_dropShadow_3048_12895" result="effect2_dropShadow_3048_12895"/>
<feBlend mode="normal" in="SourceGraphic" in2="effect2_dropShadow_3048_12895" result="shape"/>
</filter>
<filter id="filter3_dd_3048_12895" x="218" y="190" width="64" height="64" filterUnits="userSpaceOnUse" color-interpolation-filters="sRGB">
<feFlood flood-opacity="0" result="BackgroundImageFix"/>
<feColorMatrix in="SourceAlpha" type="matrix" values="0 0 0 0 0 0 0 0 0 0 0 0 0 0 0 0 0 0 127 0" result="hardAlpha"/>
<feOffset dy="2"/>
<feGaussianBlur stdDeviation="2"/>
<feComposite in2="hardAlpha" operator="out"/>
<feColorMatrix type="matrix" values="0 0 0 0 0 0 0 0 0 0 0 0 0 0 0 0 0 0 0.08 0"/>
<feBlend mode="normal" in2="BackgroundImageFix" result="effect1_dropShadow_3048_12895"/>
<feColorMatrix in="SourceAlpha" type="matrix" values="0 0 0 0 0 0 0 0 0 0 0 0 0 0 0 0 0 0 127 0" result="hardAlpha"/>
<feOffset/>
<feGaussianBlur stdDeviation="0.5"/>
<feComposite in2="hardAlpha" operator="out"/>
<feColorMatrix type="matrix" values="0 0 0 0 0 0 0 0 0 0 0 0 0 0 0 0 0 0 0.04 0"/>
<feBlend mode="normal" in2="effect1_dropShadow_3048_12895" result="effect2_dropShadow_3048_12895"/>
<feBlend mode="normal" in="SourceGraphic" in2="effect2_dropShadow_3048_12895" result="shape"/>
</filter>
<filter id="filter4_dd_3048_12895" x="284" y="190" width="64" height="64" filterUnits="userSpaceOnUse" color-interpolation-filters="sRGB">
<feFlood flood-opacity="0" result="BackgroundImageFix"/>
<feColorMatrix in="SourceAlpha" type="matrix" values="0 0 0 0 0 0 0 0 0 0 0 0 0 0 0 0 0 0 127 0" result="hardAlpha"/>
<feOffset dy="2"/>
<feGaussianBlur stdDeviation="2"/>
<feComposite in2="hardAlpha" operator="out"/>
<feColorMatrix type="matrix" values="0 0 0 0 0 0 0 0 0 0 0 0 0 0 0 0 0 0 0.08 0"/>
<feBlend mode="normal" in2="BackgroundImageFix" result="effect1_dropShadow_3048_12895"/>
<feColorMatrix in="SourceAlpha" type="matrix" values="0 0 0 0 0 0 0 0 0 0 0 0 0 0 0 0 0 0 127 0" result="hardAlpha"/>
<feOffset/>
<feGaussianBlur stdDeviation="0.5"/>
<feComposite in2="hardAlpha" operator="out"/>
<feColorMatrix type="matrix" values="0 0 0 0 0 0 0 0 0 0 0 0 0 0 0 0 0 0 0.04 0"/>
<feBlend mode="normal" in2="effect1_dropShadow_3048_12895" result="effect2_dropShadow_3048_12895"/>
<feBlend mode="normal" in="SourceGraphic" in2="effect2_dropShadow_3048_12895" result="shape"/>
</filter>
<filter id="filter5_dd_3048_12895" x="350" y="190" width="64" height="64" filterUnits="userSpaceOnUse" color-interpolation-filters="sRGB">
<feFlood flood-opacity="0" result="BackgroundImageFix"/>
<feColorMatrix in="SourceAlpha" type="matrix" values="0 0 0 0 0 0 0 0 0 0 0 0 0 0 0 0 0 0 127 0" result="hardAlpha"/>
<feOffset dy="2"/>
<feGaussianBlur stdDeviation="2"/>
<feComposite in2="hardAlpha" operator="out"/>
<feColorMatrix type="matrix" values="0 0 0 0 0 0 0 0 0 0 0 0 0 0 0 0 0 0 0.08 0"/>
<feBlend mode="normal" in2="BackgroundImageFix" result="effect1_dropShadow_3048_12895"/>
<feColorMatrix in="SourceAlpha" type="matrix" values="0 0 0 0 0 0 0 0 0 0 0 0 0 0 0 0 0 0 127 0" result="hardAlpha"/>
<feOffset/>
<feGaussianBlur stdDeviation="0.5"/>
<feComposite in2="hardAlpha" operator="out"/>
<feColorMatrix type="matrix" values="0 0 0 0 0 0 0 0 0 0 0 0 0 0 0 0 0 0 0.04 0"/>
<feBlend mode="normal" in2="effect1_dropShadow_3048_12895" result="effect2_dropShadow_3048_12895"/>
<feBlend mode="normal" in="SourceGraphic" in2="effect2_dropShadow_3048_12895" result="shape"/>
</filter>
<filter id="filter6_dd_3048_12895" x="416" y="190" width="64" height="64" filterUnits="userSpaceOnUse" color-interpolation-filters="sRGB">
<feFlood flood-opacity="0" result="BackgroundImageFix"/>
<feColorMatrix in="SourceAlpha" type="matrix" values="0 0 0 0 0 0 0 0 0 0 0 0 0 0 0 0 0 0 127 0" result="hardAlpha"/>
<feOffset dy="2"/>
<feGaussianBlur stdDeviation="2"/>
<feComposite in2="hardAlpha" operator="out"/>
<feColorMatrix type="matrix" values="0 0 0 0 0 0 0 0 0 0 0 0 0 0 0 0 0 0 0.08 0"/>
<feBlend mode="normal" in2="BackgroundImageFix" result="effect1_dropShadow_3048_12895"/>
<feColorMatrix in="SourceAlpha" type="matrix" values="0 0 0 0 0 0 0 0 0 0 0 0 0 0 0 0 0 0 127 0" result="hardAlpha"/>
<feOffset/>
<feGaussianBlur stdDeviation="0.5"/>
<feComposite in2="hardAlpha" operator="out"/>
<feColorMatrix type="matrix" values="0 0 0 0 0 0 0 0 0 0 0 0 0 0 0 0 0 0 0.04 0"/>
<feBlend mode="normal" in2="effect1_dropShadow_3048_12895" result="effect2_dropShadow_3048_12895"/>
<feBlend mode="normal" in="SourceGraphic" in2="effect2_dropShadow_3048_12895" result="shape"/>
</filter>
<filter id="filter7_dd_3048_12895" x="20" y="256" width="64" height="64" filterUnits="userSpaceOnUse" color-interpolation-filters="sRGB">
<feFlood flood-opacity="0" result="BackgroundImageFix"/>
<feColorMatrix in="SourceAlpha" type="matrix" values="0 0 0 0 0 0 0 0 0 0 0 0 0 0 0 0 0 0 127 0" result="hardAlpha"/>
<feOffset dy="2"/>
<feGaussianBlur stdDeviation="2"/>
<feComposite in2="hardAlpha" operator="out"/>
<feColorMatrix type="matrix" values="0 0 0 0 0 0 0 0 0 0 0 0 0 0 0 0 0 0 0.08 0"/>
<feBlend mode="normal" in2="BackgroundImageFix" result="effect1_dropShadow_3048_12895"/>
<feColorMatrix in="SourceAlpha" type="matrix" values="0 0 0 0 0 0 0 0 0 0 0 0 0 0 0 0 0 0 127 0" result="hardAlpha"/>
<feOffset/>
<feGaussianBlur stdDeviation="0.5"/>
<feComposite in2="hardAlpha" operator="out"/>
<feColorMatrix type="matrix" values="0 0 0 0 0 0 0 0 0 0 0 0 0 0 0 0 0 0 0.04 0"/>
<feBlend mode="normal" in2="effect1_dropShadow_3048_12895" result="effect2_dropShadow_3048_12895"/>
<feBlend mode="normal" in="SourceGraphic" in2="effect2_dropShadow_3048_12895" result="shape"/>
</filter>
<filter id="filter8_dd_3048_12895" x="86" y="256" width="64" height="64" filterUnits="userSpaceOnUse" color-interpolation-filters="sRGB">
<feFlood flood-opacity="0" result="BackgroundImageFix"/>
<feColorMatrix in="SourceAlpha" type="matrix" values="0 0 0 0 0 0 0 0 0 0 0 0 0 0 0 0 0 0 127 0" result="hardAlpha"/>
<feOffset dy="2"/>
<feGaussianBlur stdDeviation="2"/>
<feComposite in2="hardAlpha" operator="out"/>
<feColorMatrix type="matrix" values="0 0 0 0 0 0 0 0 0 0 0 0 0 0 0 0 0 0 0.08 0"/>
<feBlend mode="normal" in2="BackgroundImageFix" result="effect1_dropShadow_3048_12895"/>
<feColorMatrix in="SourceAlpha" type="matrix" values="0 0 0 0 0 0 0 0 0 0 0 0 0 0 0 0 0 0 127 0" result="hardAlpha"/>
<feOffset/>
<feGaussianBlur stdDeviation="0.5"/>
<feComposite in2="hardAlpha" operator="out"/>
<feColorMatrix type="matrix" values="0 0 0 0 0 0 0 0 0 0 0 0 0 0 0 0 0 0 0.04 0"/>
<feBlend mode="normal" in2="effect1_dropShadow_3048_12895" result="effect2_dropShadow_3048_12895"/>
<feBlend mode="normal" in="SourceGraphic" in2="effect2_dropShadow_3048_12895" result="shape"/>
</filter>
<filter id="filter9_dd_3048_12895" x="152" y="256" width="64" height="64" filterUnits="userSpaceOnUse" color-interpolation-filters="sRGB">
<feFlood flood-opacity="0" result="BackgroundImageFix"/>
<feColorMatrix in="SourceAlpha" type="matrix" values="0 0 0 0 0 0 0 0 0 0 0 0 0 0 0 0 0 0 127 0" result="hardAlpha"/>
<feOffset dy="2"/>
<feGaussianBlur stdDeviation="2"/>
<feComposite in2="hardAlpha" operator="out"/>
<feColorMatrix type="matrix" values="0 0 0 0 0 0 0 0 0 0 0 0 0 0 0 0 0 0 0.08 0"/>
<feBlend mode="normal" in2="BackgroundImageFix" result="effect1_dropShadow_3048_12895"/>
<feColorMatrix in="SourceAlpha" type="matrix" values="0 0 0 0 0 0 0 0 0 0 0 0 0 0 0 0 0 0 127 0" result="hardAlpha"/>
<feOffset/>
<feGaussianBlur stdDeviation="0.5"/>
<feComposite in2="hardAlpha" operator="out"/>
<feColorMatrix type="matrix" values="0 0 0 0 0 0 0 0 0 0 0 0 0 0 0 0 0 0 0.04 0"/>
<feBlend mode="normal" in2="effect1_dropShadow_3048_12895" result="effect2_dropShadow_3048_12895"/>
<feBlend mode="normal" in="SourceGraphic" in2="effect2_dropShadow_3048_12895" result="shape"/>
</filter>
<filter id="filter10_dd_3048_12895" x="218" y="256" width="64" height="64" filterUnits="userSpaceOnUse" color-interpolation-filters="sRGB">
<feFlood flood-opacity="0" result="BackgroundImageFix"/>
<feColorMatrix in="SourceAlpha" type="matrix" values="0 0 0 0 0 0 0 0 0 0 0 0 0 0 0 0 0 0 127 0" result="hardAlpha"/>
<feOffset dy="2"/>
<feGaussianBlur stdDeviation="2"/>
<feComposite in2="hardAlpha" operator="out"/>
<feColorMatrix type="matrix" values="0 0 0 0 0 0 0 0 0 0 0 0 0 0 0 0 0 0 0.08 0"/>
<feBlend mode="normal" in2="BackgroundImageFix" result="effect1_dropShadow_3048_12895"/>
<feColorMatrix in="SourceAlpha" type="matrix" values="0 0 0 0 0 0 0 0 0 0 0 0 0 0 0 0 0 0 127 0" result="hardAlpha"/>
<feOffset/>
<feGaussianBlur stdDeviation="0.5"/>
<feComposite in2="hardAlpha" operator="out"/>
<feColorMatrix type="matrix" values="0 0 0 0 0 0 0 0 0 0 0 0 0 0 0 0 0 0 0.04 0"/>
<feBlend mode="normal" in2="effect1_dropShadow_3048_12895" result="effect2_dropShadow_3048_12895"/>
<feBlend mode="normal" in="SourceGraphic" in2="effect2_dropShadow_3048_12895" result="shape"/>
</filter>
<filter id="filter11_dd_3048_12895" x="284" y="256" width="64" height="64" filterUnits="userSpaceOnUse" color-interpolation-filters="sRGB">
<feFlood flood-opacity="0" result="BackgroundImageFix"/>
<feColorMatrix in="SourceAlpha" type="matrix" values="0 0 0 0 0 0 0 0 0 0 0 0 0 0 0 0 0 0 127 0" result="hardAlpha"/>
<feOffset dy="2"/>
<feGaussianBlur stdDeviation="2"/>
<feComposite in2="hardAlpha" operator="out"/>
<feColorMatrix type="matrix" values="0 0 0 0 0 0 0 0 0 0 0 0 0 0 0 0 0 0 0.08 0"/>
<feBlend mode="normal" in2="BackgroundImageFix" result="effect1_dropShadow_3048_12895"/>
<feColorMatrix in="SourceAlpha" type="matrix" values="0 0 0 0 0 0 0 0 0 0 0 0 0 0 0 0 0 0 127 0" result="hardAlpha"/>
<feOffset/>
<feGaussianBlur stdDeviation="0.5"/>
<feComposite in2="hardAlpha" operator="out"/>
<feColorMatrix type="matrix" values="0 0 0 0 0 0 0 0 0 0 0 0 0 0 0 0 0 0 0.04 0"/>
<feBlend mode="normal" in2="effect1_dropShadow_3048_12895" result="effect2_dropShadow_3048_12895"/>
<feBlend mode="normal" in="SourceGraphic" in2="effect2_dropShadow_3048_12895" result="shape"/>
</filter>
<filter id="filter12_dd_3048_12895" x="350" y="256" width="64" height="64" filterUnits="userSpaceOnUse" color-interpolation-filters="sRGB">
<feFlood flood-opacity="0" result="BackgroundImageFix"/>
<feColorMatrix in="SourceAlpha" type="matrix" values="0 0 0 0 0 0 0 0 0 0 0 0 0 0 0 0 0 0 127 0" result="hardAlpha"/>
<feOffset dy="2"/>
<feGaussianBlur stdDeviation="2"/>
<feComposite in2="hardAlpha" operator="out"/>
<feColorMatrix type="matrix" values="0 0 0 0 0 0 0 0 0 0 0 0 0 0 0 0 0 0 0.08 0"/>
<feBlend mode="normal" in2="BackgroundImageFix" result="effect1_dropShadow_3048_12895"/>
<feColorMatrix in="SourceAlpha" type="matrix" values="0 0 0 0 0 0 0 0 0 0 0 0 0 0 0 0 0 0 127 0" result="hardAlpha"/>
<feOffset/>
<feGaussianBlur stdDeviation="0.5"/>
<feComposite in2="hardAlpha" operator="out"/>
<feColorMatrix type="matrix" values="0 0 0 0 0 0 0 0 0 0 0 0 0 0 0 0 0 0 0.04 0"/>
<feBlend mode="normal" in2="effect1_dropShadow_3048_12895" result="effect2_dropShadow_3048_12895"/>
<feBlend mode="normal" in="SourceGraphic" in2="effect2_dropShadow_3048_12895" result="shape"/>
</filter>
<filter id="filter13_dd_3048_12895" x="416" y="256" width="64" height="64" filterUnits="userSpaceOnUse" color-interpolation-filters="sRGB">
<feFlood flood-opacity="0" result="BackgroundImageFix"/>
<feColorMatrix in="SourceAlpha" type="matrix" values="0 0 0 0 0 0 0 0 0 0 0 0 0 0 0 0 0 0 127 0" result="hardAlpha"/>
<feOffset dy="2"/>
<feGaussianBlur stdDeviation="2"/>
<feComposite in2="hardAlpha" operator="out"/>
<feColorMatrix type="matrix" values="0 0 0 0 0 0 0 0 0 0 0 0 0 0 0 0 0 0 0.08 0"/>
<feBlend mode="normal" in2="BackgroundImageFix" result="effect1_dropShadow_3048_12895"/>
<feColorMatrix in="SourceAlpha" type="matrix" values="0 0 0 0 0 0 0 0 0 0 0 0 0 0 0 0 0 0 127 0" result="hardAlpha"/>
<feOffset/>
<feGaussianBlur stdDeviation="0.5"/>
<feComposite in2="hardAlpha" operator="out"/>
<feColorMatrix type="matrix" values="0 0 0 0 0 0 0 0 0 0 0 0 0 0 0 0 0 0 0.04 0"/>
<feBlend mode="normal" in2="effect1_dropShadow_3048_12895" result="effect2_dropShadow_3048_12895"/>
<feBlend mode="normal" in="SourceGraphic" in2="effect2_dropShadow_3048_12895" result="shape"/>
</filter>
<filter id="filter14_dd_3048_12895" x="20" y="322" width="64" height="64" filterUnits="userSpaceOnUse" color-interpolation-filters="sRGB">
<feFlood flood-opacity="0" result="BackgroundImageFix"/>
<feColorMatrix in="SourceAlpha" type="matrix" values="0 0 0 0 0 0 0 0 0 0 0 0 0 0 0 0 0 0 127 0" result="hardAlpha"/>
<feOffset dy="2"/>
<feGaussianBlur stdDeviation="2"/>
<feComposite in2="hardAlpha" operator="out"/>
<feColorMatrix type="matrix" values="0 0 0 0 0 0 0 0 0 0 0 0 0 0 0 0 0 0 0.08 0"/>
<feBlend mode="normal" in2="BackgroundImageFix" result="effect1_dropShadow_3048_12895"/>
<feColorMatrix in="SourceAlpha" type="matrix" values="0 0 0 0 0 0 0 0 0 0 0 0 0 0 0 0 0 0 127 0" result="hardAlpha"/>
<feOffset/>
<feGaussianBlur stdDeviation="0.5"/>
<feComposite in2="hardAlpha" operator="out"/>
<feColorMatrix type="matrix" values="0 0 0 0 0 0 0 0 0 0 0 0 0 0 0 0 0 0 0.04 0"/>
<feBlend mode="normal" in2="effect1_dropShadow_3048_12895" result="effect2_dropShadow_3048_12895"/>
<feBlend mode="normal" in="SourceGraphic" in2="effect2_dropShadow_3048_12895" result="shape"/>
</filter>
<filter id="filter15_dd_3048_12895" x="86" y="322" width="64" height="64" filterUnits="userSpaceOnUse" color-interpolation-filters="sRGB">
<feFlood flood-opacity="0" result="BackgroundImageFix"/>
<feColorMatrix in="SourceAlpha" type="matrix" values="0 0 0 0 0 0 0 0 0 0 0 0 0 0 0 0 0 0 127 0" result="hardAlpha"/>
<feOffset dy="2"/>
<feGaussianBlur stdDeviation="2"/>
<feComposite in2="hardAlpha" operator="out"/>
<feColorMatrix type="matrix" values="0 0 0 0 0 0 0 0 0 0 0 0 0 0 0 0 0 0 0.08 0"/>
<feBlend mode="normal" in2="BackgroundImageFix" result="effect1_dropShadow_3048_12895"/>
<feColorMatrix in="SourceAlpha" type="matrix" values="0 0 0 0 0 0 0 0 0 0 0 0 0 0 0 0 0 0 127 0" result="hardAlpha"/>
<feOffset/>
<feGaussianBlur stdDeviation="0.5"/>
<feComposite in2="hardAlpha" operator="out"/>
<feColorMatrix type="matrix" values="0 0 0 0 0 0 0 0 0 0 0 0 0 0 0 0 0 0 0.04 0"/>
<feBlend mode="normal" in2="effect1_dropShadow_3048_12895" result="effect2_dropShadow_3048_12895"/>
<feBlend mode="normal" in="SourceGraphic" in2="effect2_dropShadow_3048_12895" result="shape"/>
</filter>
<filter id="filter16_dd_3048_12895" x="152" y="322" width="64" height="64" filterUnits="userSpaceOnUse" color-interpolation-filters="sRGB">
<feFlood flood-opacity="0" result="BackgroundImageFix"/>
<feColorMatrix in="SourceAlpha" type="matrix" values="0 0 0 0 0 0 0 0 0 0 0 0 0 0 0 0 0 0 127 0" result="hardAlpha"/>
<feOffset dy="2"/>
<feGaussianBlur stdDeviation="2"/>
<feComposite in2="hardAlpha" operator="out"/>
<feColorMatrix type="matrix" values="0 0 0 0 0 0 0 0 0 0 0 0 0 0 0 0 0 0 0.08 0"/>
<feBlend mode="normal" in2="BackgroundImageFix" result="effect1_dropShadow_3048_12895"/>
<feColorMatrix in="SourceAlpha" type="matrix" values="0 0 0 0 0 0 0 0 0 0 0 0 0 0 0 0 0 0 127 0" result="hardAlpha"/>
<feOffset/>
<feGaussianBlur stdDeviation="0.5"/>
<feComposite in2="hardAlpha" operator="out"/>
<feColorMatrix type="matrix" values="0 0 0 0 0 0 0 0 0 0 0 0 0 0 0 0 0 0 0.04 0"/>
<feBlend mode="normal" in2="effect1_dropShadow_3048_12895" result="effect2_dropShadow_3048_12895"/>
<feBlend mode="normal" in="SourceGraphic" in2="effect2_dropShadow_3048_12895" result="shape"/>
</filter>
<filter id="filter17_dd_3048_12895" x="218" y="322" width="64" height="64" filterUnits="userSpaceOnUse" color-interpolation-filters="sRGB">
<feFlood flood-opacity="0" result="BackgroundImageFix"/>
<feColorMatrix in="SourceAlpha" type="matrix" values="0 0 0 0 0 0 0 0 0 0 0 0 0 0 0 0 0 0 127 0" result="hardAlpha"/>
<feOffset dy="2"/>
<feGaussianBlur stdDeviation="2"/>
<feComposite in2="hardAlpha" operator="out"/>
<feColorMatrix type="matrix" values="0 0 0 0 0 0 0 0 0 0 0 0 0 0 0 0 0 0 0.08 0"/>
<feBlend mode="normal" in2="BackgroundImageFix" result="effect1_dropShadow_3048_12895"/>
<feColorMatrix in="SourceAlpha" type="matrix" values="0 0 0 0 0 0 0 0 0 0 0 0 0 0 0 0 0 0 127 0" result="hardAlpha"/>
<feOffset/>
<feGaussianBlur stdDeviation="0.5"/>
<feComposite in2="hardAlpha" operator="out"/>
<feColorMatrix type="matrix" values="0 0 0 0 0 0 0 0 0 0 0 0 0 0 0 0 0 0 0.04 0"/>
<feBlend mode="normal" in2="effect1_dropShadow_3048_12895" result="effect2_dropShadow_3048_12895"/>
<feBlend mode="normal" in="SourceGraphic" in2="effect2_dropShadow_3048_12895" result="shape"/>
</filter>
<filter id="filter18_dd_3048_12895" x="284" y="322" width="64" height="64" filterUnits="userSpaceOnUse" color-interpolation-filters="sRGB">
<feFlood flood-opacity="0" result="BackgroundImageFix"/>
<feColorMatrix in="SourceAlpha" type="matrix" values="0 0 0 0 0 0 0 0 0 0 0 0 0 0 0 0 0 0 127 0" result="hardAlpha"/>
<feOffset dy="2"/>
<feGaussianBlur stdDeviation="2"/>
<feComposite in2="hardAlpha" operator="out"/>
<feColorMatrix type="matrix" values="0 0 0 0 0 0 0 0 0 0 0 0 0 0 0 0 0 0 0.08 0"/>
<feBlend mode="normal" in2="BackgroundImageFix" result="effect1_dropShadow_3048_12895"/>
<feColorMatrix in="SourceAlpha" type="matrix" values="0 0 0 0 0 0 0 0 0 0 0 0 0 0 0 0 0 0 127 0" result="hardAlpha"/>
<feOffset/>
<feGaussianBlur stdDeviation="0.5"/>
<feComposite in2="hardAlpha" operator="out"/>
<feColorMatrix type="matrix" values="0 0 0 0 0 0 0 0 0 0 0 0 0 0 0 0 0 0 0.04 0"/>
<feBlend mode="normal" in2="effect1_dropShadow_3048_12895" result="effect2_dropShadow_3048_12895"/>
<feBlend mode="normal" in="SourceGraphic" in2="effect2_dropShadow_3048_12895" result="shape"/>
</filter>
<filter id="filter19_dd_3048_12895" x="350" y="322" width="64" height="64" filterUnits="userSpaceOnUse" color-interpolation-filters="sRGB">
<feFlood flood-opacity="0" result="BackgroundImageFix"/>
<feColorMatrix in="SourceAlpha" type="matrix" values="0 0 0 0 0 0 0 0 0 0 0 0 0 0 0 0 0 0 127 0" result="hardAlpha"/>
<feOffset dy="2"/>
<feGaussianBlur stdDeviation="2"/>
<feComposite in2="hardAlpha" operator="out"/>
<feColorMatrix type="matrix" values="0 0 0 0 0 0 0 0 0 0 0 0 0 0 0 0 0 0 0.08 0"/>
<feBlend mode="normal" in2="BackgroundImageFix" result="effect1_dropShadow_3048_12895"/>
<feColorMatrix in="SourceAlpha" type="matrix" values="0 0 0 0 0 0 0 0 0 0 0 0 0 0 0 0 0 0 127 0" result="hardAlpha"/>
<feOffset/>
<feGaussianBlur stdDeviation="0.5"/>
<feComposite in2="hardAlpha" operator="out"/>
<feColorMatrix type="matrix" values="0 0 0 0 0 0 0 0 0 0 0 0 0 0 0 0 0 0 0.04 0"/>
<feBlend mode="normal" in2="effect1_dropShadow_3048_12895" result="effect2_dropShadow_3048_12895"/>
<feBlend mode="normal" in="SourceGraphic" in2="effect2_dropShadow_3048_12895" result="shape"/>
</filter>
<filter id="filter20_dd_3048_12895" x="416" y="322" width="64" height="64" filterUnits="userSpaceOnUse" color-interpolation-filters="sRGB">
<feFlood flood-opacity="0" result="BackgroundImageFix"/>
<feColorMatrix in="SourceAlpha" type="matrix" values="0 0 0 0 0 0 0 0 0 0 0 0 0 0 0 0 0 0 127 0" result="hardAlpha"/>
<feOffset dy="2"/>
<feGaussianBlur stdDeviation="2"/>
<feComposite in2="hardAlpha" operator="out"/>
<feColorMatrix type="matrix" values="0 0 0 0 0 0 0 0 0 0 0 0 0 0 0 0 0 0 0.08 0"/>
<feBlend mode="normal" in2="BackgroundImageFix" result="effect1_dropShadow_3048_12895"/>
<feColorMatrix in="SourceAlpha" type="matrix" values="0 0 0 0 0 0 0 0 0 0 0 0 0 0 0 0 0 0 127 0" result="hardAlpha"/>
<feOffset/>
<feGaussianBlur stdDeviation="0.5"/>
<feComposite in2="hardAlpha" operator="out"/>
<feColorMatrix type="matrix" values="0 0 0 0 0 0 0 0 0 0 0 0 0 0 0 0 0 0 0.04 0"/>
<feBlend mode="normal" in2="effect1_dropShadow_3048_12895" result="effect2_dropShadow_3048_12895"/>
<feBlend mode="normal" in="SourceGraphic" in2="effect2_dropShadow_3048_12895" result="shape"/>
</filter>
<filter id="filter21_dd_3048_12895" x="20" y="388" width="64" height="64" filterUnits="userSpaceOnUse" color-interpolation-filters="sRGB">
<feFlood flood-opacity="0" result="BackgroundImageFix"/>
<feColorMatrix in="SourceAlpha" type="matrix" values="0 0 0 0 0 0 0 0 0 0 0 0 0 0 0 0 0 0 127 0" result="hardAlpha"/>
<feOffset dy="2"/>
<feGaussianBlur stdDeviation="2"/>
<feComposite in2="hardAlpha" operator="out"/>
<feColorMatrix type="matrix" values="0 0 0 0 0 0 0 0 0 0 0 0 0 0 0 0 0 0 0.08 0"/>
<feBlend mode="normal" in2="BackgroundImageFix" result="effect1_dropShadow_3048_12895"/>
<feColorMatrix in="SourceAlpha" type="matrix" values="0 0 0 0 0 0 0 0 0 0 0 0 0 0 0 0 0 0 127 0" result="hardAlpha"/>
<feOffset/>
<feGaussianBlur stdDeviation="0.5"/>
<feComposite in2="hardAlpha" operator="out"/>
<feColorMatrix type="matrix" values="0 0 0 0 0 0 0 0 0 0 0 0 0 0 0 0 0 0 0.04 0"/>
<feBlend mode="normal" in2="effect1_dropShadow_3048_12895" result="effect2_dropShadow_3048_12895"/>
<feBlend mode="normal" in="SourceGraphic" in2="effect2_dropShadow_3048_12895" result="shape"/>
</filter>
<filter id="filter22_dd_3048_12895" x="86" y="388" width="64" height="64" filterUnits="userSpaceOnUse" color-interpolation-filters="sRGB">
<feFlood flood-opacity="0" result="BackgroundImageFix"/>
<feColorMatrix in="SourceAlpha" type="matrix" values="0 0 0 0 0 0 0 0 0 0 0 0 0 0 0 0 0 0 127 0" result="hardAlpha"/>
<feOffset dy="2"/>
<feGaussianBlur stdDeviation="2"/>
<feComposite in2="hardAlpha" operator="out"/>
<feColorMatrix type="matrix" values="0 0 0 0 0 0 0 0 0 0 0 0 0 0 0 0 0 0 0.08 0"/>
<feBlend mode="normal" in2="BackgroundImageFix" result="effect1_dropShadow_3048_12895"/>
<feColorMatrix in="SourceAlpha" type="matrix" values="0 0 0 0 0 0 0 0 0 0 0 0 0 0 0 0 0 0 127 0" result="hardAlpha"/>
<feOffset/>
<feGaussianBlur stdDeviation="0.5"/>
<feComposite in2="hardAlpha" operator="out"/>
<feColorMatrix type="matrix" values="0 0 0 0 0 0 0 0 0 0 0 0 0 0 0 0 0 0 0.04 0"/>
<feBlend mode="normal" in2="effect1_dropShadow_3048_12895" result="effect2_dropShadow_3048_12895"/>
<feBlend mode="normal" in="SourceGraphic" in2="effect2_dropShadow_3048_12895" result="shape"/>
</filter>
<filter id="filter23_dd_3048_12895" x="152" y="388" width="64" height="64" filterUnits="userSpaceOnUse" color-interpolation-filters="sRGB">
<feFlood flood-opacity="0" result="BackgroundImageFix"/>
<feColorMatrix in="SourceAlpha" type="matrix" values="0 0 0 0 0 0 0 0 0 0 0 0 0 0 0 0 0 0 127 0" result="hardAlpha"/>
<feOffset dy="2"/>
<feGaussianBlur stdDeviation="2"/>
<feComposite in2="hardAlpha" operator="out"/>
<feColorMatrix type="matrix" values="0 0 0 0 0 0 0 0 0 0 0 0 0 0 0 0 0 0 0.08 0"/>
<feBlend mode="normal" in2="BackgroundImageFix" result="effect1_dropShadow_3048_12895"/>
<feColorMatrix in="SourceAlpha" type="matrix" values="0 0 0 0 0 0 0 0 0 0 0 0 0 0 0 0 0 0 127 0" result="hardAlpha"/>
<feOffset/>
<feGaussianBlur stdDeviation="0.5"/>
<feComposite in2="hardAlpha" operator="out"/>
<feColorMatrix type="matrix" values="0 0 0 0 0 0 0 0 0 0 0 0 0 0 0 0 0 0 0.04 0"/>
<feBlend mode="normal" in2="effect1_dropShadow_3048_12895" result="effect2_dropShadow_3048_12895"/>
<feBlend mode="normal" in="SourceGraphic" in2="effect2_dropShadow_3048_12895" result="shape"/>
</filter>
<filter id="filter24_dd_3048_12895" x="218" y="388" width="64" height="64" filterUnits="userSpaceOnUse" color-interpolation-filters="sRGB">
<feFlood flood-opacity="0" result="BackgroundImageFix"/>
<feColorMatrix in="SourceAlpha" type="matrix" values="0 0 0 0 0 0 0 0 0 0 0 0 0 0 0 0 0 0 127 0" result="hardAlpha"/>
<feOffset dy="2"/>
<feGaussianBlur stdDeviation="2"/>
<feComposite in2="hardAlpha" operator="out"/>
<feColorMatrix type="matrix" values="0 0 0 0 0 0 0 0 0 0 0 0 0 0 0 0 0 0 0.08 0"/>
<feBlend mode="normal" in2="BackgroundImageFix" result="effect1_dropShadow_3048_12895"/>
<feColorMatrix in="SourceAlpha" type="matrix" values="0 0 0 0 0 0 0 0 0 0 0 0 0 0 0 0 0 0 127 0" result="hardAlpha"/>
<feOffset/>
<feGaussianBlur stdDeviation="0.5"/>
<feComposite in2="hardAlpha" operator="out"/>
<feColorMatrix type="matrix" values="0 0 0 0 0 0 0 0 0 0 0 0 0 0 0 0 0 0 0.04 0"/>
<feBlend mode="normal" in2="effect1_dropShadow_3048_12895" result="effect2_dropShadow_3048_12895"/>
<feBlend mode="normal" in="SourceGraphic" in2="effect2_dropShadow_3048_12895" result="shape"/>
</filter>
<filter id="filter25_dd_3048_12895" x="284" y="388" width="64" height="64" filterUnits="userSpaceOnUse" color-interpolation-filters="sRGB">
<feFlood flood-opacity="0" result="BackgroundImageFix"/>
<feColorMatrix in="SourceAlpha" type="matrix" values="0 0 0 0 0 0 0 0 0 0 0 0 0 0 0 0 0 0 127 0" result="hardAlpha"/>
<feOffset dy="2"/>
<feGaussianBlur stdDeviation="2"/>
<feComposite in2="hardAlpha" operator="out"/>
<feColorMatrix type="matrix" values="0 0 0 0 0 0 0 0 0 0 0 0 0 0 0 0 0 0 0.08 0"/>
<feBlend mode="normal" in2="BackgroundImageFix" result="effect1_dropShadow_3048_12895"/>
<feColorMatrix in="SourceAlpha" type="matrix" values="0 0 0 0 0 0 0 0 0 0 0 0 0 0 0 0 0 0 127 0" result="hardAlpha"/>
<feOffset/>
<feGaussianBlur stdDeviation="0.5"/>
<feComposite in2="hardAlpha" operator="out"/>
<feColorMatrix type="matrix" values="0 0 0 0 0 0 0 0 0 0 0 0 0 0 0 0 0 0 0.04 0"/>
<feBlend mode="normal" in2="effect1_dropShadow_3048_12895" result="effect2_dropShadow_3048_12895"/>
<feBlend mode="normal" in="SourceGraphic" in2="effect2_dropShadow_3048_12895" result="shape"/>
</filter>
<filter id="filter26_dd_3048_12895" x="350" y="388" width="64" height="64" filterUnits="userSpaceOnUse" color-interpolation-filters="sRGB">
<feFlood flood-opacity="0" result="BackgroundImageFix"/>
<feColorMatrix in="SourceAlpha" type="matrix" values="0 0 0 0 0 0 0 0 0 0 0 0 0 0 0 0 0 0 127 0" result="hardAlpha"/>
<feOffset dy="2"/>
<feGaussianBlur stdDeviation="2"/>
<feComposite in2="hardAlpha" operator="out"/>
<feColorMatrix type="matrix" values="0 0 0 0 0 0 0 0 0 0 0 0 0 0 0 0 0 0 0.08 0"/>
<feBlend mode="normal" in2="BackgroundImageFix" result="effect1_dropShadow_3048_12895"/>
<feColorMatrix in="SourceAlpha" type="matrix" values="0 0 0 0 0 0 0 0 0 0 0 0 0 0 0 0 0 0 127 0" result="hardAlpha"/>
<feOffset/>
<feGaussianBlur stdDeviation="0.5"/>
<feComposite in2="hardAlpha" operator="out"/>
<feColorMatrix type="matrix" values="0 0 0 0 0 0 0 0 0 0 0 0 0 0 0 0 0 0 0.04 0"/>
<feBlend mode="normal" in2="effect1_dropShadow_3048_12895" result="effect2_dropShadow_3048_12895"/>
<feBlend mode="normal" in="SourceGraphic" in2="effect2_dropShadow_3048_12895" result="shape"/>
</filter>
<filter id="filter27_dd_3048_12895" x="416" y="388" width="64" height="64" filterUnits="userSpaceOnUse" color-interpolation-filters="sRGB">
<feFlood flood-opacity="0" result="BackgroundImageFix"/>
<feColorMatrix in="SourceAlpha" type="matrix" values="0 0 0 0 0 0 0 0 0 0 0 0 0 0 0 0 0 0 127 0" result="hardAlpha"/>
<feOffset dy="2"/>
<feGaussianBlur stdDeviation="2"/>
<feComposite in2="hardAlpha" operator="out"/>
<feColorMatrix type="matrix" values="0 0 0 0 0 0 0 0 0 0 0 0 0 0 0 0 0 0 0.08 0"/>
<feBlend mode="normal" in2="BackgroundImageFix" result="effect1_dropShadow_3048_12895"/>
<feColorMatrix in="SourceAlpha" type="matrix" values="0 0 0 0 0 0 0 0 0 0 0 0 0 0 0 0 0 0 127 0" result="hardAlpha"/>
<feOffset/>
<feGaussianBlur stdDeviation="0.5"/>
<feComposite in2="hardAlpha" operator="out"/>
<feColorMatrix type="matrix" values="0 0 0 0 0 0 0 0 0 0 0 0 0 0 0 0 0 0 0.04 0"/>
<feBlend mode="normal" in2="effect1_dropShadow_3048_12895" result="effect2_dropShadow_3048_12895"/>
<feBlend mode="normal" in="SourceGraphic" in2="effect2_dropShadow_3048_12895" result="shape"/>
</filter>
<filter id="filter28_dd_3048_12895" x="20" y="454" width="64" height="64" filterUnits="userSpaceOnUse" color-interpolation-filters="sRGB">
<feFlood flood-opacity="0" result="BackgroundImageFix"/>
<feColorMatrix in="SourceAlpha" type="matrix" values="0 0 0 0 0 0 0 0 0 0 0 0 0 0 0 0 0 0 127 0" result="hardAlpha"/>
<feOffset dy="2"/>
<feGaussianBlur stdDeviation="2"/>
<feComposite in2="hardAlpha" operator="out"/>
<feColorMatrix type="matrix" values="0 0 0 0 0 0 0 0 0 0 0 0 0 0 0 0 0 0 0.08 0"/>
<feBlend mode="normal" in2="BackgroundImageFix" result="effect1_dropShadow_3048_12895"/>
<feColorMatrix in="SourceAlpha" type="matrix" values="0 0 0 0 0 0 0 0 0 0 0 0 0 0 0 0 0 0 127 0" result="hardAlpha"/>
<feOffset/>
<feGaussianBlur stdDeviation="0.5"/>
<feComposite in2="hardAlpha" operator="out"/>
<feColorMatrix type="matrix" values="0 0 0 0 0 0 0 0 0 0 0 0 0 0 0 0 0 0 0.04 0"/>
<feBlend mode="normal" in2="effect1_dropShadow_3048_12895" result="effect2_dropShadow_3048_12895"/>
<feBlend mode="normal" in="SourceGraphic" in2="effect2_dropShadow_3048_12895" result="shape"/>
</filter>
<filter id="filter29_dd_3048_12895" x="86" y="454" width="64" height="64" filterUnits="userSpaceOnUse" color-interpolation-filters="sRGB">
<feFlood flood-opacity="0" result="BackgroundImageFix"/>
<feColorMatrix in="SourceAlpha" type="matrix" values="0 0 0 0 0 0 0 0 0 0 0 0 0 0 0 0 0 0 127 0" result="hardAlpha"/>
<feOffset dy="2"/>
<feGaussianBlur stdDeviation="2"/>
<feComposite in2="hardAlpha" operator="out"/>
<feColorMatrix type="matrix" values="0 0 0 0 0 0 0 0 0 0 0 0 0 0 0 0 0 0 0.08 0"/>
<feBlend mode="normal" in2="BackgroundImageFix" result="effect1_dropShadow_3048_12895"/>
<feColorMatrix in="SourceAlpha" type="matrix" values="0 0 0 0 0 0 0 0 0 0 0 0 0 0 0 0 0 0 127 0" result="hardAlpha"/>
<feOffset/>
<feGaussianBlur stdDeviation="0.5"/>
<feComposite in2="hardAlpha" operator="out"/>
<feColorMatrix type="matrix" values="0 0 0 0 0 0 0 0 0 0 0 0 0 0 0 0 0 0 0.04 0"/>
<feBlend mode="normal" in2="effect1_dropShadow_3048_12895" result="effect2_dropShadow_3048_12895"/>
<feBlend mode="normal" in="SourceGraphic" in2="effect2_dropShadow_3048_12895" result="shape"/>
</filter>
<filter id="filter30_dd_3048_12895" x="152" y="454" width="64" height="64" filterUnits="userSpaceOnUse" color-interpolation-filters="sRGB">
<feFlood flood-opacity="0" result="BackgroundImageFix"/>
<feColorMatrix in="SourceAlpha" type="matrix" values="0 0 0 0 0 0 0 0 0 0 0 0 0 0 0 0 0 0 127 0" result="hardAlpha"/>
<feOffset dy="2"/>
<feGaussianBlur stdDeviation="2"/>
<feComposite in2="hardAlpha" operator="out"/>
<feColorMatrix type="matrix" values="0 0 0 0 0 0 0 0 0 0 0 0 0 0 0 0 0 0 0.08 0"/>
<feBlend mode="normal" in2="BackgroundImageFix" result="effect1_dropShadow_3048_12895"/>
<feColorMatrix in="SourceAlpha" type="matrix" values="0 0 0 0 0 0 0 0 0 0 0 0 0 0 0 0 0 0 127 0" result="hardAlpha"/>
<feOffset/>
<feGaussianBlur stdDeviation="0.5"/>
<feComposite in2="hardAlpha" operator="out"/>
<feColorMatrix type="matrix" values="0 0 0 0 0 0 0 0 0 0 0 0 0 0 0 0 0 0 0.04 0"/>
<feBlend mode="normal" in2="effect1_dropShadow_3048_12895" result="effect2_dropShadow_3048_12895"/>
<feBlend mode="normal" in="SourceGraphic" in2="effect2_dropShadow_3048_12895" result="shape"/>
</filter>
</defs>
</svg>
