<svg width="18" height="18" viewBox="0 0 18 18" fill="none" xmlns="http://www.w3.org/2000/svg">
<path id="Vector" d="M12.4421 11.0671H11.7179L11.4613 10.8196C12.3596 9.7746 12.9004 8.41793 12.9004 6.9421C12.9004 3.65126 10.2329 0.983765 6.9421 0.983765C3.65126 0.983765 0.983765 3.65126 0.983765 6.9421C0.983765 10.2329 3.65126 12.9004 6.9421 12.9004C8.41793 12.9004 9.7746 12.3596 10.8196 11.4613L11.0671 11.7179V12.4421L15.6504 17.0163L17.0163 15.6504L12.4421 11.0671ZM6.9421 11.0671C4.6596 11.0671 2.8171 9.2246 2.8171 6.9421C2.8171 4.6596 4.6596 2.8171 6.9421 2.8171C9.2246 2.8171 11.0671 4.6596 11.0671 6.9421C11.0671 9.2246 9.2246 11.0671 6.9421 11.0671Z" fill="#5E5E5E" fill-opacity="0.46"/>
</svg>
